<svg xmlns="http://www.w3.org/2000/svg" viewBox="0 0 54.47 54.32"><defs><style>.cls-1{fill:#1876f1}</style></defs><g id="Layer_2" data-name="Layer 2"><g id="Find_Us" data-name="Find Us"><path class="cls-1" d="M54.47 25.26v4.15c-.09.83-.11 1.68-.18 2.52a18.38 18.38 0 0 1-1.14 4.62A26.55 26.55 0 0 1 48.3 45a27.35 27.35 0 0 1-11.2 8 32.49 32.49 0 0 1-3.87 1.16 13.1 13.1 0 0 1-1.4.2.44.44 0 0 1-.54-.44v-17.8c0-1.14.05-1.19 1.2-1.19h4.3c.73 0 .87-.1 1-.82.31-1.94.62-3.88.91-5.82.08-.53-.08-.69-.65-.7h-5.56c-1.18 0-1.22-.05-1.22-1.23v-4.25a4.79 4.79 0 0 1 .37-1.86c.78-1.87 2.34-2.44 4.19-2.52h2.55c.58 0 .74-.15.74-.72v-4.78c0-.4-.1-.71-.55-.78a24.36 24.36 0 0 0-7.76-.21 8.91 8.91 0 0 0-4.7 2.32 9 9 0 0 0-2.49 4.6 12.6 12.6 0 0 0-.34 3.06v5.36c0 .92-.1 1-1 1h-5c-.78 0-.89.12-.89.89v5.58c0 .75.12.87.86.87h5.05c.88 0 1 .1 1 1V53.5c0 .83-.09.91-.87.82a21.61 21.61 0 0 1-5.75-1.63A27.48 27.48 0 0 1 .27 32.39 22.26 22.26 0 0 1 0 28.83a47.86 47.86 0 0 1 .16-6.11 20.1 20.1 0 0 1 1.15-4.58 26.92 26.92 0 0 1 4.34-7.87 27.39 27.39 0 0 1 11.87-8.69A28.48 28.48 0 0 1 22 .31a15.06 15.06 0 0 1 2.28-.22 48.23 48.23 0 0 1 7.6.12 21.8 21.8 0 0 1 6.05 1.73A26.88 26.88 0 0 1 47 8.13a27.09 27.09 0 0 1 7.17 13.46 22.15 22.15 0 0 1 .26 3.05c.01.21-.07.42.04.62z" id="CNVuGJ"/></g></g></svg>