<?xml version="1.0" encoding="UTF-8"?>
<svg width="281px" height="121px" viewBox="0 0 281 121" version="1.1" xmlns="http://www.w3.org/2000/svg" xmlns:xlink="http://www.w3.org/1999/xlink">
    <title>Group 3</title>
    <g id="Page-1" stroke="none" stroke-width="1" fill="none" fill-rule="evenodd">
        <g id="Group-3" transform="translate(-0.000150, 0.000700)" fill="#0069A7">
            <g id="Group-2">
                <path d="M38.6685498,51.7268 L46.3505498,70.2178 L40.4295498,73.0298 L35.2005498,60.7048 L38.6685498,51.7268 Z M43.2005498,96.0168 C44.1555498,93.5118 45.5605498,91.2288 47.3185498,89.2678 L42.9415498,78.9518 L48.8195498,76.1608 L52.5045498,85.0298 C54.3385498,83.9538 56.3435498,83.1398 58.4705498,82.6378 L28.1065498,9.5528 L4.19754984,1.8678 C2.50754984,1.3258 0.697549841,2.2548 0.154549841,3.9438 C-0.387450159,5.6338 0.541549841,7.4438 2.23054984,7.9868 L23.3115498,14.7628 L35.0975498,43.1328 L28.2675498,60.8188 L43.2005498,96.0168 Z" id="Fill-1"></path>
                <path d="M62.9213498,110.8275 C58.4853498,110.8275 54.8883498,107.2315 54.8883498,102.7945 C54.8883498,98.3585 58.4853498,94.7615 62.9213498,94.7615 C67.3583498,94.7615 70.9543498,98.3585 70.9543498,102.7945 C70.9543498,107.2315 67.3583498,110.8275 62.9213498,110.8275 M62.9213498,85.1205 C53.1603498,85.1205 45.2473498,93.0335 45.2473498,102.7945 C45.2473498,112.5555 53.1603498,120.4685 62.9213498,120.4685 C72.6823498,120.4685 80.5953498,112.5555 80.5953498,102.7945 C80.5953498,93.0335 72.6823498,85.1205 62.9213498,85.1205" id="Fill-4"></path>
                <path d="M118.22445,79.482 C117.55045,77.84 115.67445,77.054 114.03145,77.728 L80.3074498,91.555 C81.4324498,93.361 82.2984498,95.346 82.8434498,97.461 L116.47045,83.674 C118.11245,83.001 118.89745,81.124 118.22445,79.482" id="Fill-7"></path>
                <path d="M66.5357498,102.7945 C66.5357498,104.7905 64.9177498,106.4085 62.9217498,106.4085 C60.9247498,106.4085 59.3067498,104.7905 59.3067498,102.7945 C59.3067498,100.7985 60.9247498,99.1805 62.9217498,99.1805 C64.9177498,99.1805 66.5357498,100.7985 66.5357498,102.7945" id="Fill-9"></path>
                <polygon id="Fill-11" points="54.6984498 5.135 58.3284498 13.735 56.6294498 12.827 56.1274498 14.663 54.6584498 13.658 54.1904498 15.481 52.7544498 14.462 52.3514498 16.258 50.8494498 15.266 50.1834498 17.172 46.5534498 8.573 33.4144498 14.119 47.8034498 48.207 81.2534498 34.088 66.8644498 0"></polygon>
                <path d="M62.9213498,110.8275 C58.4853498,110.8275 54.8883498,107.2315 54.8883498,102.7945 C54.8883498,98.3585 58.4853498,94.7615 62.9213498,94.7615 C67.3583498,94.7615 70.9543498,98.3585 70.9543498,102.7945 C70.9543498,107.2315 67.3583498,110.8275 62.9213498,110.8275 M62.9213498,85.1205 C53.1603498,85.1205 45.2473498,93.0335 45.2473498,102.7945 C45.2473498,112.5555 53.1603498,120.4685 62.9213498,120.4685 C72.6823498,120.4685 80.5953498,112.5555 80.5953498,102.7945 C80.5953498,93.0335 72.6823498,85.1205 62.9213498,85.1205" id="Fill-13"></path>
                <path d="M78.4543498,88.9799 L110.89935,75.2849 L92.1013498,30.7499 L76.2053498,37.4589 L80.9483498,48.6939 L78.7283498,47.5079 L78.0733498,49.9069 L76.1543498,48.5939 L75.5413498,50.9759 L73.6653498,49.6449 L73.1383498,51.9899 L71.1763498,50.6949 L70.3073498,53.1859 L65.5643498,41.9499 L48.3993498,49.1959 L62.2853498,82.0939 C62.7133498,82.0659 63.1443498,82.0469 63.5793498,82.0469 C69.5503498,82.0469 74.8893498,84.7419 78.4543498,88.9799" id="Fill-16"></path>
                <path d="M67.5420498,93.5859 L67.1970498,93.7319 L67.0350498,93.3489 C67.2080498,93.4219 67.3760498,93.5019 67.5420498,93.5859" id="Fill-18"></path>
            </g>
            <g id="Group" transform="translate(139.137050, 46.565300)">
                <polygon id="Fill-20" points="-5.68434189e-14 0.8748 4.896 0.8748 8.423 15.1558 12.357 0.8748 16.146 0.8748 20.081 15.1558 23.607 0.8748 28.503 0.8748 22.878 21.2758 17.574 21.2758 14.251 9.2388 10.929 21.2758 5.625 21.2758"></polygon>
                <path d="M43.7984,12.3284 L43.7984,21.2754 L39.4264,21.2754 L39.4264,12.9694 C39.4264,11.1624 38.2894,10.3174 36.8914,10.3174 C35.2874,10.3174 34.1804,11.2504 34.1804,13.3194 L34.1804,21.2754 L29.8094,21.2754 L29.8094,0.8744 L34.1804,0.8744 L34.1804,8.0734 C34.9674,6.9954 36.4244,6.2954 38.3484,6.2954 C41.2914,6.2954 43.7984,8.3934 43.7984,12.3284" id="Fill-22"></path>
                <path d="M57.1421,13.9895 C57.1421,11.9205 55.6851,10.5505 53.7901,10.5505 C51.8961,10.5505 50.4391,11.9205 50.4391,13.9895 C50.4391,16.0585 51.8961,17.4285 53.7901,17.4285 C55.6851,17.4285 57.1421,16.0585 57.1421,13.9895 M46.0681,13.9895 C46.0681,9.6475 49.5061,6.2955 53.7901,6.2955 C58.0751,6.2955 61.5141,9.6475 61.5141,13.9895 C61.5141,18.3325 58.0751,21.6835 53.7901,21.6835 C49.5061,21.6835 46.0681,18.3325 46.0681,13.9895" id="Fill-24"></path>
                <polygon id="Fill-26" points="63.9881 21.275 68.3591 21.275 68.3591 0 63.9881 0"></polygon>
                <path d="M81.647,12.4739 C81.18,10.7839 79.869,10.1719 78.557,10.1719 C76.896,10.1719 75.789,10.9879 75.38,12.4739 L81.647,12.4739 Z M78.965,17.7789 C80.161,17.7789 81.18,17.3119 81.763,16.6709 L85.26,18.6819 C83.833,20.6639 81.676,21.6839 78.908,21.6839 C73.923,21.6839 70.834,18.3319 70.834,13.9899 C70.834,9.6469 73.982,6.2959 78.586,6.2959 C82.841,6.2959 85.99,9.5889 85.99,13.9899 C85.99,14.6019 85.931,15.1839 85.814,15.7379 L75.468,15.7379 C76.022,17.2539 77.363,17.7789 78.965,17.7789 L78.965,17.7789 Z" id="Fill-28"></path>
                <path d="M99.189,16.9041 C99.189,20.2561 96.274,21.6841 93.127,21.6841 C90.212,21.6841 87.998,20.5761 86.861,18.2161 L90.65,16.0591 C91.029,17.1661 91.844,17.7791 93.127,17.7791 C94.176,17.7791 94.701,17.4581 94.701,16.8751 C94.701,15.2721 87.531,16.1171 87.531,11.0751 C87.531,7.8981 90.212,6.2961 93.244,6.2961 C95.604,6.2961 97.703,7.3441 98.926,9.4141 L95.196,11.4251 C94.788,10.6671 94.205,10.1421 93.244,10.1421 C92.486,10.1421 92.019,10.4341 92.019,10.9591 C92.019,12.6201 99.189,11.5121 99.189,16.9041" id="Fill-29"></path>
                <path d="M111.8062,13.9895 C111.8062,11.8035 110.3492,10.4335 108.3372,10.4335 C106.3272,10.4335 104.8692,11.8035 104.8692,13.9895 C104.8692,16.1755 106.3272,17.5455 108.3372,17.5455 C110.3492,17.5455 111.8062,16.1755 111.8062,13.9895 L111.8062,13.9895 Z M116.1772,6.7035 L116.1772,21.2755 L111.8062,21.2755 L111.8062,19.9065 C110.8442,21.0135 109.4152,21.6835 107.4632,21.6835 C103.6452,21.6835 100.4972,18.3325 100.4972,13.9895 C100.4972,9.6475 103.6452,6.2955 107.4632,6.2955 C109.4152,6.2955 110.8442,6.9655 111.8062,8.0735 L111.8062,6.7035 L116.1772,6.7035 Z" id="Fill-30"></path>
                <polygon id="Fill-31" points="119.3791 21.275 123.7511 21.275 123.7511 0 119.3791 0"></polygon>
                <path d="M137.0396,12.4739 C136.5736,10.7839 135.2626,10.1719 133.9506,10.1719 C132.2896,10.1719 131.1826,10.9879 130.7736,12.4739 L137.0396,12.4739 Z M134.3586,17.7789 C135.5536,17.7789 136.5736,17.3119 137.1566,16.6709 L140.6536,18.6819 C139.2266,20.6639 137.0686,21.6839 134.3006,21.6839 C129.3166,21.6839 126.2266,18.3319 126.2266,13.9899 C126.2266,9.6469 129.3746,6.2959 133.9796,6.2959 C138.2346,6.2959 141.3826,9.5889 141.3826,13.9899 C141.3826,14.6019 141.3236,15.1839 141.2076,15.7379 L130.8606,15.7379 C131.4156,17.2539 132.7556,17.7789 134.3586,17.7789 L134.3586,17.7789 Z" id="Fill-32"></path>
            </g>
        </g>
    </g>
</svg>