<svg width="463" height="117" viewBox="0 0 463 117" xmlns="http://www.w3.org/2000/svg"><title>amazon-storefront</title><g fill="none" fill-rule="evenodd"><path d="M82.53 10.918c6.596-13.281 24.61-14.072 31.23.663 3.275-6.377 8.092-10.274 15.221-10.832 9.764-.762 17.706 5.3 18.027 15.053.532 16.165.243 32.356.331 48.536.014 2.509-1.215 3.324-3.587 3.224-2.943-.123-5.908-.195-8.84.016-3.223.23-4.004-1.218-3.978-4.17.112-12.802.127-25.605.016-38.406-.058-6.697-3.18-9.793-8.642-8.79-4.164.767-6.29 3.718-6.777 7.672-.393 3.197-.317 6.459-.329 9.691-.036 9.86-.15 19.721.058 29.575.078 3.63-1.338 4.688-4.684 4.423a45.733 45.733 0 0 0-7.512.002c-3.503.3-4.663-1.142-4.618-4.573.15-11.18.1-22.366.051-33.549-.01-2.637-.052-5.325-.549-7.898-.6-3.107-2.393-5.271-5.944-5.508-3.652-.244-6.353.992-7.763 4.468-1.415 3.488-1.405 7.2-1.424 10.87-.053 10.595-.094 21.19.026 31.784.036 3.102-.766 4.428-4.215 4.444-12.17.053-12.17.18-12.17-11.822 0-16.481.075-32.962-.063-49.442-.028-3.264.943-4.69 4.264-4.25.87.115 1.766.017 2.651.017 8.386 0 8.386 0 9.22 8.802m273.083 1.504c6.103-10.743 13.617-14.02 22.758-10.611 6.212 2.317 9.494 6.914 10.085 13.222 1.54 16.433.44 32.923.72 49.386.036 2.144-.908 3.224-3.21 3.14-3.09-.111-6.196-.165-9.28.013-3.102.18-4.118-1.08-4.087-4.126.123-11.765.08-23.531.024-35.296-.01-2.19-.16-4.42-.604-6.556-.599-2.89-2.09-5.142-5.399-5.581-3.45-.457-6.099.81-7.829 3.74-1.518 2.567-2.216 5.415-2.227 8.424-.043 11.47-.244 22.943-.09 34.41.053 3.874-1.214 5.076-5.085 5.028-11.608-.143-11.609.003-11.61-11.59-.003-16.472.082-32.945-.08-49.415-.034-3.477.99-5.005 4.515-4.5.288.042.587.007.882.006 10.032-.027 10.032-.027 10.517 10.306" fill="#020303"/><path d="M154.273 116.602c-34.082-.596-67.41-12.23-96.054-36.55-.449-.383-.909-.753-1.338-1.156-1.05-.987-2.695-1.984-1.605-3.605 1.128-1.675 2.682-.463 3.901.23 6.786 3.856 13.763 7.34 20.993 10.26 32.941 13.3 66.99 18.754 102.47 14.58 18.391-2.166 36.126-6.654 53.288-13.518a31.34 31.34 0 0 1 2.07-.77c1.791-.578 3.561-.756 4.671 1.158 1.236 2.13-.414 3.302-1.799 4.333-6.522 4.854-13.654 8.695-21.067 11.96-18.944 8.347-41.817 13.078-65.53 13.078" fill="#F7971D"/><path d="M247.92 15.135c-6.688 0-12.554-.107-18.414.042-3.379.085-4.752-1.113-4.66-4.626.254-9.688-1.059-8.536 8.414-8.572 10.46-.04 20.923.102 31.38-.073 3.432-.057 4.595.953 4.613 4.51.021 4.301-.919 7.857-3.542 11.394-6.725 9.065-13.06 18.418-19.872 28.112 5.396.605 10.464.567 15.34 2.097 8.872 2.783 11.374 6.893 8.995 15.757-.89 3.321-2.984 1.817-4.832 1.014-11.453-4.979-23.06-5.374-34.815-1.153-7.797 2.801-7.565 2.804-7.875-5.512-.192-5.15 1.362-9.313 4.373-13.412 6.947-9.458 13.566-19.157 20.895-29.578" fill="#030404"/><path d="M239.935 78.3c-4.042.32-8.885.71-13.728 1.085-1.121.086-2.59.829-3.19-.542-.71-1.617.94-2.327 1.972-2.917 10.368-5.917 21.41-6.847 32.876-4.156 2.263.53 3.46 1.982 3.395 4.454-.306 11.643-4.166 21.815-12.415 30.19-.924.94-2.047 2.252-3.373 1.315-1.42-1.003-.103-2.423.282-3.577 1.494-4.453 3.29-8.814 4.597-13.318 3.032-10.446 1.26-12.662-10.416-12.534" fill="#F7981D"/><path d="M294.213 103.67c-2.114.14-4.116-.472-6.058-1.112-2.817-.929-1.49-3.344-1.079-4.859.644-2.367 1.973-.19 2.963.076 1.127.305 2.16.982 3.293 1.224 2.095.445 4.376.517 5.376-1.785 1.198-2.76-1.367-3.427-3.07-4.397-1.529-.87-3.21-1.48-4.703-2.401-5.225-3.224-5.198-9.27.047-12.492 3.208-1.972 6.635-1.84 10.241-1.194 2.795.502 2.714 2.06 2.318 4.108-.57 2.943-2.13 1.384-3.55.862-1.369-.505-2.749-1.2-4.27-.835-1.325.317-2.53.885-2.796 2.443-.233 1.374.512 2.247 1.62 2.845 1.548.837 3.116 1.642 4.703 2.403 3.424 1.642 6.03 3.835 5.311 8.118-.72 4.298-3.929 5.924-7.707 6.805-.848.198-1.758.135-2.639.192m134.742-9.469c0-2.498-.013-4.995.006-7.492.01-1.112-.429-2.592 1.31-2.737 1.296-.107 3.17-1.46 3.827.577.762 2.364 1.63.736 2.424.324 6.05-3.136 9.58-.99 9.58 5.838 0 3.527-.138 7.065.107 10.575.181 2.59-1.289 2.342-2.982 2.397-1.746.056-2.737-.21-2.584-2.343.221-3.073.115-6.168.2-9.253.055-2.068-.17-4.141-2.789-4.04-2.409.096-4.126 1.308-3.88 4.23.21 2.485.176 4.99.207 7.489.023 1.907.885 3.984-2.69 4.014-3.465.028-2.882-1.784-2.773-3.853.1-1.904.021-3.817.021-5.726h.016zm-42.99 1.485c0 1.758-.14 3.529.035 5.27.208 2.068-.424 2.759-2.604 2.773-2.305.017-3.043-.616-2.874-2.95.24-3.354.21-6.737.11-10.102-.046-1.605 1.025-3.762-2.22-4.134-1.35-.154-.902-2.94.063-2.996 2.678-.156 1.99-1.84 2.194-3.308.667-4.793 6.519-8.154 11.025-6.51 1.406.515 1.167 1.426 1.15 2.43-.025 1.48-.66 2.117-2.205 1.83-2.135-.397-4.24-.58-4.616 2.407-.217 1.719-.266 3.245 2.304 2.989.93-.092 2.562-.732 2.607 1.269.038 1.674-.844 2.439-2.49 2.15-2.315-.407-2.707.773-2.575 2.732.136 2.042.03 4.099.03 6.15h.066z" fill="#040505"/><path d="M314.978 78.934c-.005 2.454-.288 5.38 3.89 4.448.726-.162 1.444.231 1.329 1.234-.118 1.022-.192 2.398-1.577 2.141-4.512-.836-3.634 2.34-3.776 4.8-.026.44.009.886-.063 1.317-.666 4.047.115 6.79 5.11 5.484.472 3.751-1.808 4.553-4.502 4.607-2.898.058-5.346-.992-5.67-4.263-.246-2.465.15-4.989-.051-7.462-.137-1.702 1.332-4.26-2.137-4.687-1.002-.123-.72-2.064-.4-2.227 2.85-1.456 3.007-6.678 7.848-5.392m137.016 14.214c-.955-2.072 2-5.832-2.662-6.847-.153-.034-.28-1.466-.1-1.55 2.461-1.126 2.107-4.705 4.885-5.505 1.757-.505 3.698-1.32 3.232 1.866-.406 2.782 1.533 2.19 3.048 2.21 1.095.013 2.073.019 1.89 1.594-.133 1.136-.367 2.142-1.778 1.879-3.77-.704-3.564 1.802-3.556 4.228.005 1.47-.062 2.94-.11 4.409-.076 2.162.742 3.35 3.13 3.08.83-.093 2.206-.938 2.167.984-.024 1.192-.232 2.172-1.538 2.848-4.185 2.166-8.75-.292-8.916-4.977-.046-1.313.184-2.636.308-4.219" fill="#050606"/><path d="M349.63 86.605c1.306-1.139 2.029-1.854 2.839-2.453.845-.624 1.96-1.226 2.86-.624 1.3.867.452 2.414.615 3.654.205 1.552-.883 1.381-1.96 1.511-3.393.413-4.731 2.509-4.52 5.819.132 2.054-.004 4.128.188 6.173.203 2.166-.305 3.037-2.782 3.07-2.645.036-2.742-1.115-2.685-3.151.132-4.703.129-9.414.025-14.118-.042-1.928.334-2.874 2.55-3.113 2.5-.27 3.068.812 2.87 3.232m48.451.337c1.863-1.52 2.79-2.484 3.902-3.12.957-.549 2.507-1.179 2.76.584.194 1.358 1.108 3.916-.898 4.09-5.85.507-5.743 4.328-5.518 8.487.08 1.464-.054 2.951.14 4.398.358 2.701-1.469 2.161-3.034 2.297-1.902.165-2.54-.45-2.475-2.432.16-4.838.16-9.686.041-14.526-.052-2.094.32-3.129 2.75-3.365 2.66-.258 3.012.91 2.332 3.587" fill="#040505"/><path d="M193.307 40.756c-.043 3.53-.164 6.437-1.582 9.139-2.041 3.889-4.774 6.637-9.582 6.363-3.208-.183-5.081-1.982-6.076-4.87-1.47-4.265-.23-9.478 3.01-12.071 3.623-2.901 8.072-3.73 12.442-3.545 4.219.177.12 4.013 1.788 4.984m20.39 13.946c-2.562-2.881-3.376-6.418-3.286-10.237.09-3.822.02-7.648.02-12.191-.146-4.865.288-10.456-.445-16.032-.65-4.94-2.835-8.897-6.957-11.747-9.441-6.53-27.386-5.59-36.181 1.833-2.418 2.04-4.223 4.492-5.48 7.354-2.604 5.932-1.828 7.246 4.525 7.769 1.615.133 3.277.043 4.839.4 2.785.638 4.21-.076 5.229-2.992 1.917-5.49 8.308-7.718 13.468-5.07 4.436 2.28 4.11 6.523 3.824 10.43-.263 3.58-3.606 2.062-5.607 2.528-2.421.563-4.982.5-7.441.937-6.297 1.118-12.34 2.858-16.91 7.763-9.045 9.708-6.536 27.263 4.884 31.463 8.124 2.987 16.447 2.41 23.319-3.457 3.3-2.818 5.39-3.738 7.546.703.186.382.595.649.867.996 2.504 3.182 5.042 3.642 7.973.408 1.47-1.623 3.234-3.018 5.01-4.318 2.678-1.96 3.136-3.921.804-6.54M35.467 40.303c.174 3.516-.307 6.537-1.64 9.384-1.791 3.83-4.42 6.551-9.012 6.594-3.156.03-5.33-1.473-6.523-4.31-1.578-3.754-.457-9.772 2.414-12.29 3.759-3.296 8.513-4.09 13.203-3.904 3.236.128.682 3.351 1.558 4.526M56.04 55.128c-2.68-3.154-3.795-6.859-3.661-11.018.127-3.964.027-7.936.027-11.904h-.07c0-4.409.152-8.825-.033-13.226-.378-8.998-4.201-13.937-12.658-17.077C33.78-.276 27.75-.119 21.784.755c-10.275 1.506-17.607 7.89-19.48 16.11-.598 2.63.088 3.966 2.77 4.23 2.783.272 5.59.39 8.34.854 2.539.43 3.665-.476 4.513-2.875 1.94-5.484 7.526-7.745 12.87-5.514 3.61 1.508 5.744 6.093 4.66 10.793-.796 3.45-4.094 1.687-6.187 2.464-.662.245-1.462.096-2.191.191-7.027.911-14.073 1.888-19.77 6.623C.136 39.594-1.132 47.48.833 56.021 2.404 62.858 7.09 66.93 13.975 68.002c7.712 1.201 15.106.174 20.909-5.597 2.526-2.512 3.897-2.299 5.367.714.375.77 1.102 1.368 1.659 2.051 2.529 3.093 5.094 3.595 8.039.41 1.588-1.717 3.402-3.277 5.308-4.639 2.46-1.758 2.763-3.485.784-5.813m255.284-5.539c-.955 3.603-3.287 6.493-7.8 6.55-4.568.059-6.446-2.853-7.779-6.471-1.917-5.2-1.74-10.65-1.797-16.067.037-4.978-.11-9.972 1.826-14.721 1.478-3.624 3.925-5.613 8.061-5.517 4.028.094 6.458 2.259 7.33 5.788 2.495 10.1 2.838 20.338.16 30.438m14.127-36.044C320.707 4.648 312.606.429 302.474.723c-9.98.288-17.215 5.124-21.872 13.926-3.32 6.273-4.362 13.019-4.417 17.836-.027 7.785.694 13.3 2.72 18.573 4.111 10.704 11.621 17.384 23.344 17.807 11.022.397 19.375-4.826 24.156-14.69 6.582-13.574 6.104-27.406-.952-40.63" fill="#020303"/><path d="M334.287 97.67c-.496 1.562-1.874 2.232-3.442 2.15-1.559-.081-2.84-.847-3.255-2.459-.508-1.978-.833-3.986-.533-6.059.321-2.219 1.133-4.083 3.684-4.082 2.453.002 3.57 1.668 3.841 3.951.103.867.118 1.745.204 3.112-.109.815-.11 2.162-.499 3.387m-3.056-14.323c-5.932-.017-9.419 3.682-9.585 10.176-.163 6.328 3.166 10.097 8.936 10.115 6.018.019 9.378-3.594 9.462-10.175.084-6.557-3-10.099-8.813-10.116" fill="#050606"/><path d="M415.73 99.79c-3.295.055-3.745-2.725-4.007-5.272a14.96 14.96 0 0 1 .06-3.494c.274-2.044 1.214-3.683 3.517-3.81 2.29-.128 3.447 1.36 3.933 3.374.27 1.123.269 2.311.329 2.88-.043 3.348-.22 6.26-3.832 6.321m.368-16.44c-6.09-.089-9.744 3.838-9.742 10.473.002 6.19 3.173 9.725 8.8 9.808 6.14.091 9.683-3.736 9.688-10.462.002-6.243-3.108-9.736-8.746-9.819m-53.31 7.467c1.22-3.037 2.766-4.186 5.28-3.493 1.17.323 2.52 1.504 1.745 2.454-1.664 2.043-4.179.56-7.025 1.038m3.911 3.168c1.286-.217 2.636-.043 3.957-.05 4.3-.02 5.073-1.07 4.06-5.209-.812-3.306-3.055-4.87-6.228-5.313-4.502-.627-8.372 1.486-10.062 5.392-1.96 4.532-.802 10.24 2.615 12.882 4.91 3.797 12.09 2.183 13.347-3.61-2.9.629-5.25 1.678-7.753 1.135-2.29-.498-3.882-2.081-3.609-4.284.255-2.06 2.401-.731 3.673-.944" fill="#040505"/></g></svg>