<svg width="105" height="87" viewBox="0 0 105 87" xmlns="http://www.w3.org/2000/svg"><title>buy-now-coco</title><g fill="none" fill-rule="evenodd"><path d="M14.32 31.268c-.924-.59-2.035-.36-2.625.564l-1.992 3.123 3.242 2.067 1.992-3.123c.588-.923.326-2.03-.617-2.631zm-10.057.217l3.024 1.929 1.728-2.71c.54-.845.291-1.887-.572-2.438-.865-.551-1.9-.356-2.45.509l-1.73 2.71zm11.95-2.796c2.357 1.504 2.773 4.449 1.257 6.825l-3.72 5.835L0 32.579l3.457-5.42c1.478-2.318 4.24-3.182 6.537-1.717 1.18.752 1.791 1.832 1.924 3.05 1.33-.7 2.861-.717 4.295.197zm1.096-2.061l-6.902-8.533 2.482-2.008 6.742 8.334c.996 1.232 2.395 1.628 4.098.251 1.703-1.378 1.609-2.829.61-4.06l-6.74-8.335 2.5-2.023 6.903 8.534c2.213 2.735 1.496 6.073-1.293 8.33-2.773 2.242-6.185 2.246-8.4-.49M36.277 13.76l2.232 5.955-2.988 1.12-2.232-5.953-8.705-7.36 3.402-1.275 5.703 5.126.928-7.612 3.4-1.276zM63.728 2.33l-1.715 16.224-2.432-.258-5.904-10.654-1.05 9.919-3.198-.338L51.145 1l2.434.258 5.906 10.63 1.047-9.895zm15.237 15.234c1.455-2.787.436-5.816-2.188-7.184-2.623-1.37-5.69-.474-7.144 2.313-1.445 2.767-.424 5.795 2.199 7.164 2.62 1.368 5.69.474 7.133-2.293m-12.16-6.347c2.209-4.233 7.246-5.781 11.416-3.604 4.172 2.177 5.803 7.206 3.592 11.438-2.198 4.212-7.266 5.77-11.438 3.593-4.17-2.177-5.77-7.215-3.57-11.427m23.871 4.13l2.023 2.705-7.812 9.741 11.719-4.519 1.646 2.201-7.63 9.984 11.552-4.743 2.023 2.705-15.791 6.112-2.191-2.929 6.775-8.908L82.545 31.7l-2.191-2.928z" fill="#0069A7"/><path d="M77.167 64.278a6.756 6.756 0 0 1-1.427 4.165 29.15 29.15 0 0 1 1.141-6.238c.228.674.301 1.361.286 2.073.002.194.005-.193 0 0m-2.1-1.966c.718-2.805.773-5.792.893-8.682 1.14 2.655 1.025 6.464-.893 8.682m-.741 5.376c-.052 4.311-2.239 9.201-6.378 10.751 1.257-.998 2.245-2.193 3.141-3.542 1.168-1.758 3.238-7.023 3.237-7.21-.002.19-.002-.377 0 0M50.389 44.356c-3.313.21-8.977 1.014-13.211-.068-1.99-.506-2.365-3.305-.579-4.294 6.475-3.58 19.316-4.297 26.506-1.703 2.044.738 2.116 3.669.098 4.414-4.047 1.495-9.68 1.452-12.814 1.65-11.576.734 11.601-.733 0 0M33.101 75.078c-2.968-1.099-4.425-5.267-4.55-8.16.994 2.052 3.525 7.74 4.55 8.16-.131-.05.255.105 0 0m-5.19-16.238c.066.663.112 1.333.152 1.998-1.759-4.132-1.58-8.64.579-12.5-.643 3.587-1.019 6.846-.731 10.502.03.296-.022-.297 0 0m-.56 7.661c-1.532-1.736-2.065-4.267-1.702-6.517.608 1.523 1.417 6.2 1.702 6.517-.068-.075.13.15 0 0m2.418-2.368c.003-.476.063-.951.186-1.41.706 1.816 1.267 3.72 1.608 5.64a5.931 5.931 0 0 1-1.794-4.23c.001-.164-.001.168 0 0m-.006-6.817c.033-1.205.213-2.287.783-3.332.159 2.222.199 4.47 0 6.684-.554-1.065-.735-2.146-.783-3.352.005-.216.016.43 0 0m31.716-21.973c-10.445-1.293-29.337-1.255-35.077 9.412-7.101 13.195-2.196 31.505 11.194 38.621 13.842 7.355 33.197 2.017 39.714-12.656 5.857-13.184 1.158-32.566-14.164-35.133" fill="#36B0C9"/></g></svg>