<svg width="103" height="72" viewBox="0 0 103 72" xmlns="http://www.w3.org/2000/svg"><title>buy-now-tangerine</title><g fill="none" fill-rule="evenodd"><path d="M11.34 39.907l-2.41 2.687 2.408 2.157c.75.674 1.824.599 2.513-.17.688-.767.664-1.828-.104-2.516l-2.407-2.158zM9.91 49.924c.735-.82.69-1.962-.13-2.699l-2.773-2.488-2.582 2.88 2.774 2.486c.82.736 1.96.657 2.71-.18zm2.248 2.3c-1.877 2.093-4.867 2.023-6.978.13L0 47.706l10.95-12.209 4.815 4.319c2.059 1.845 2.464 4.727.634 6.768-.94 1.046-2.11 1.474-3.342 1.408.476 1.436.244 2.958-.9 4.232zm2.741 1.202l5.577-9.526 2.77 1.622-5.447 9.305c-.805 1.375-.68 2.831 1.221 3.946 1.902 1.112 3.233.508 4.04-.867l5.446-9.306 2.79 1.634-5.576 9.527c-1.787 3.053-5.183 3.564-8.298 1.741-3.095-1.812-4.312-5.022-2.524-8.076" fill="#CA3625"/><path fill="#CA3625" d="M36.416 62.597l-2.003 6.074-3.05-1.006 2.005-6.074-2.183-11.256 3.472 1.146 1.238 7.613 5.524-5.38 3.473 1.144zm26.344-7.898l1.046 16.371-2.456.156-7.655-9.561.64 10.01-3.228.206L50.06 55.51l2.456-.156 7.654 9.537-.638-9.986zm16.451 3.231c-1.045-2.986-3.97-4.322-6.78-3.337-2.809.982-4.264 3.85-3.218 6.836 1.038 2.965 3.963 4.3 6.772 3.317 2.81-.984 4.264-3.852 3.226-6.816m-13.029 4.562c-1.587-4.535.743-9.3 5.211-10.863 4.468-1.564 9.283.698 10.87 5.232 1.58 4.513-.764 9.306-5.233 10.87-4.467 1.565-9.268-.727-10.848-5.24M78.643 50.01l2.777-1.959 9.578 8.127-4.216-11.91 2.26-1.595 9.827 7.953-4.447-11.75 2.777-1.959 5.705 16.053-3.006 2.122-8.77-7.063 3.733 10.616-3.006 2.121z"/><path d="M75.466 10.881c2.414 3.566 3.675 6.93 2.818 7.51-.856.582-3.508-1.84-5.922-5.406-2.415-3.567-3.677-6.93-2.82-7.51.86-.583 3.508 1.84 5.924 5.406M69.23 26.54c-.965.376-3.618-4.127-5.926-10.06-2.307-5.932-3.396-11.046-2.433-11.423.964-.376 3.616 4.127 5.925 10.06 2.31 5.932 3.398 11.044 2.434 11.423m-13.51 7.373c-1.032.066-2.286-6.393-2.802-14.427-.514-8.035-.094-14.602.938-14.67 1.03-.067 2.287 6.391 2.8 14.426.517 8.034.098 14.601-.935 14.671m-14.833-5.79c-1.005-.24-.618-5.456.865-11.65 1.484-6.196 3.503-11.024 4.509-10.784 1.005.24.618 5.457-.865 11.651-1.484 6.195-3.502 11.023-4.51 10.783m-8.295-14.65c1.91-3.867 4.21-6.633 5.137-6.175.927.458.132 3.965-1.778 7.83-1.908 3.868-4.208 6.633-5.135 6.175-.928-.458-.132-3.964 1.776-7.83M90.472.005L16.58 2.62c-4.931.175-8.355 4.958-6.966 9.695 3.403 11.593 13.522 29.91 43.537 30.77 31.03.894 53.833-43.664 37.32-43.079" fill="#F15F49"/></g></svg>