<svg width="98" height="87" viewBox="0 0 98 87" xmlns="http://www.w3.org/2000/svg"><title>buy-now-passionfruit</title><g fill="none" fill-rule="evenodd"><path d="M13.282 29.094c-.872-.523-1.902-.282-2.427.59L9.083 32.64l3.067 1.84 1.773-2.955c.523-.873.252-1.896-.64-2.431zm-9.346.458l2.861 1.717 1.54-2.565c.478-.798.221-1.761-.596-2.252-.817-.49-1.776-.282-2.267.536l-1.538 2.564zm11.041-2.903c2.231 1.338 2.691 4.066 1.342 6.314l-3.31 5.519L0 30.678l3.076-5.13c1.316-2.191 3.862-3.065 6.037-1.761 1.114.669 1.71 1.658 1.865 2.787 1.22-.683 2.643-.74 4 .075zm1.006-1.994l-6.627-7.762 2.26-1.928 6.47 7.582c.956 1.12 2.266 1.454 3.816.132 1.55-1.322 1.426-2.67.47-3.79L15.9 11.308l2.273-1.942 6.627 7.763c2.124 2.488 1.54 5.609-.999 7.775-2.52 2.152-5.694 2.24-7.818-.25m17.36-12.442l2.217 5.486-2.754 1.113-2.216-5.487-8.27-6.64 3.134-1.266 5.426 4.633.684-7.102 3.134-1.266zM58.658.953L57.43 16.071l-2.267-.184-5.728-9.77-.752 9.244-2.98-.242L46.931 0 49.2.184l5.73 9.75.75-9.223zm14.575 13.859c1.295-2.624.284-5.42-2.185-6.639-2.468-1.219-5.304-.323-6.6 2.301-1.286 2.604-.274 5.4 2.194 6.62 2.47 1.218 5.305.322 6.591-2.282M61.786 9.159c1.967-3.985 6.622-5.529 10.55-3.591 3.924 1.939 5.546 6.584 3.58 10.569-1.959 3.965-6.643 5.519-10.569 3.58-3.927-1.939-5.519-6.593-3.56-10.558m22.343 3.379l1.937 2.476-7.074 9.22 10.813-4.44 1.576 2.017-6.9 9.44 10.653-4.642 1.936 2.476L82.5 35.087l-2.097-2.681 6.127-8.424-9.638 3.933-2.097-2.68z" fill="#682D44"/><path d="M29.292 33.165c-18.864 21.448-5.417 45.197 6.525 50.983 11.943 5.79 32.238.927 37.921-28.726 5.052-26.364-29.507-39.245-44.446-22.257" fill="#FEBC11"/><path d="M62.466 43.993c.535-1.44 1.729-2.327 2.658-1.988.929.339 1.24 1.776.7 3.216-.538 1.437-1.731 2.327-2.656 1.988-.926-.34-1.241-1.78-.702-3.216m-2.2-3.905c-1.215-.645-1.796-1.967-1.296-2.944.495-.982 1.89-1.254 3.109-.606 1.216.649 1.8 1.966 1.3 2.948-.498.98-1.89 1.249-3.113.602m-6.877 4.142c.167-1.513 1.109-2.706 2.109-2.659.995.044 1.672 1.308 1.508 2.817-.167 1.517-1.11 2.707-2.105 2.659-1-.04-1.68-1.304-1.512-2.817m-5.639-3.051c.168-1.513 1.11-2.702 2.109-2.66.996.049 1.672 1.309 1.508 2.822-.166 1.513-1.109 2.703-2.104 2.659-1.004-.043-1.676-1.308-1.513-2.821m3.78-6.095c-.006-1.507.795-2.805 1.797-2.898 1.01-.093 1.838 1.054 1.848 2.557.01 1.511-.792 2.808-1.8 2.904-1.003.092-1.83-1.053-1.845-2.563m-.299 23.762c-1.15-.169-1.938-1.039-1.762-1.94.175-.906 1.253-1.503 2.4-1.33 1.151.172 1.942 1.041 1.766 1.947-.175.894-1.254 1.492-2.404 1.323m-1.979-6.998c-.998-.86-1.297-2.226-.665-3.046.627-.82 1.946-.788 2.945.07.998.865 1.294 2.232.666 3.052-.631.823-1.95.792-2.946-.076m-3.796 10.998c-.855-1.028-.956-2.441-.229-3.16.726-.721 2.014-.474 2.866.548.862 1.019.96 2.437.232 3.154-.73.723-2.017.479-2.869-.542m13.389-7.205c1.35-.49 2.648-.066 2.898.955.258 1.016-.63 2.244-1.982 2.734-1.348.494-2.642.067-2.9-.954-.248-1.013.636-2.24 1.984-2.735m-6.125 9.346c-.085-1.486.65-2.817 1.647-2.966.999-.154 1.875.928 1.967 2.422.083 1.486-.65 2.814-1.65 2.967-.994.153-1.872-.937-1.963-2.423m4.11 6.574c-.466-1.373-.082-2.84.86-3.281.942-.441 2.082.319 2.552 1.691.466 1.369.082 2.84-.855 3.281-.946.438-2.086-.314-2.557-1.691m4.739-5.075c-.08-1.491.662-2.816 1.661-2.962 1-.145 1.87.945 1.953 2.436.08 1.487-.66 2.816-1.66 2.96-.996.146-1.87-.948-1.954-2.434m3.533-6.836c-.084-1.488.662-2.817 1.657-2.966 1-.138 1.87.95 1.953 2.44.078 1.491-.661 2.815-1.66 2.96-1 .146-1.871-.944-1.95-2.435m1.566-7.44c-1.365.405-2.63-.113-2.823-1.148-.194-1.043.76-2.211 2.125-2.612 1.369-.406 2.633.113 2.829 1.151.187 1.036-.765 2.208-2.131 2.609m-7.181-1.099c-.18 1.502-1.133 2.675-2.118 2.619-.993-.06-1.65-1.32-1.467-2.823.18-1.503 1.128-2.674 2.114-2.614.997.055 1.651 1.318 1.471 2.818m-14.795-9.596c-.184 1.504-1.132 2.675-2.125 2.616-.986-.056-1.643-1.316-1.46-2.823.177-1.499 1.13-2.67 2.115-2.61.993.054 1.65 1.314 1.47 2.817m8.613 36.629c-1.387-.031-2.432-.927-2.337-2.004.102-1.082 1.305-1.93 2.69-1.897 1.388.03 2.434.93 2.338 2.007-.097 1.078-1.304 1.928-2.691 1.894m-6.079-1.689c-.421 1.464-1.531 2.458-2.49 2.213-.952-.245-1.382-1.63-.967-3.097.422-1.464 1.532-2.45 2.483-2.213.956.246 1.39 1.63.974 3.097m-2.337-8.399c-.415 1.463-1.524 2.457-2.483 2.216-.953-.249-1.382-1.634-.963-3.097.419-1.464 1.529-2.454 2.479-2.213.955.241 1.389 1.63.967 3.094m-4.257 8.248c-.415 1.467-1.532 2.458-2.483 2.216-.955-.245-1.385-1.63-.967-3.097.419-1.463 1.532-2.454 2.483-2.212.95.241 1.385 1.626.967 3.093m-6.446-4.9c.027 1.497-.76 2.797-1.76 2.9-.995.108-1.83-1.02-1.857-2.522-.03-1.493.755-2.795 1.755-2.9 1-.104 1.83 1.022 1.861 2.522m-3.872-5.023c.026 1.498-.756 2.797-1.756 2.9-.997.104-1.834-1.02-1.866-2.517-.023-1.497.76-2.796 1.764-2.901.992-.107 1.826 1.025 1.858 2.518m1.143-13.092c.052-1.499.903-2.753 1.903-2.8.996-.04 1.765 1.142 1.71 2.645-.054 1.503-.902 2.76-1.9 2.797-1 .044-1.765-1.139-1.713-2.642m-2.83 5.978c.123 1.482-.58 2.836-1.58 3.008-.991.183-1.897-.881-2.022-2.363-.124-1.482.589-2.833 1.584-3.008.993-.176 1.902.884 2.018 2.363m4.106-13.464c-.014 1.498-.832 2.779-1.829 2.853-1 .078-1.803-1.078-1.792-2.576.014-1.502.828-2.782 1.828-2.856.996-.074 1.804 1.08 1.793 2.579m2.659-7.419c1.277.501 2.07 1.51 1.773 2.256-.293.746-1.568.948-2.841.446-1.273-.499-2.07-1.507-1.778-2.257.3-.742 1.574-.943 2.846-.445m-2.71 21.957c.438-1.459 1.565-2.433 2.515-2.175.95.264 1.357 1.652.92 3.114-.44 1.458-1.562 2.435-2.511 2.178-.946-.262-1.361-1.656-.924-3.118m6.874-2.495c.438-1.455 1.562-2.428 2.512-2.171.949.26 1.357 1.652.919 3.11-.44 1.463-1.562 2.436-2.507 2.178-.95-.257-1.365-1.655-.924-3.117m4.248-9.591c1.358.2 2.296 1.223 2.09 2.29-.207 1.069-1.477 1.775-2.837 1.583-1.366-.2-2.305-1.226-2.1-2.293.209-1.068 1.482-1.776 2.847-1.58m1.036-14.755c.173-1.501 1.12-2.676 2.114-2.621.987.052 1.65 1.31 1.474 2.813-.172 1.503-1.12 2.678-2.113 2.622-.99-.051-1.65-1.307-1.474-2.813m-4.116 2.133c-1.348-.278-2.23-1.36-1.97-2.415.255-1.065 1.559-1.701 2.907-1.424 1.344.275 2.229 1.356 1.97 2.415-.26 1.059-1.558 1.698-2.907 1.424m-2.393 9.387c1.361.201 2.3 1.223 2.092 2.294-.209 1.068-1.478 1.775-2.84 1.575-1.365-.196-2.304-1.222-2.095-2.29.205-1.067 1.478-1.775 2.843-1.579M52.107 69.9c-.418 1.462-1.528 2.453-2.483 2.211-.955-.245-1.386-1.63-.967-3.097.422-1.464 1.533-2.45 2.483-2.212.952.245 1.385 1.63.967 3.097" fill="#57374D"/></g></svg>