<svg width="103" height="104" viewBox="0 0 103 104" xmlns="http://www.w3.org/2000/svg"><title>seal-passionfruit</title><g fill="none" fill-rule="evenodd"><path d="M102.331 52.168c0 28.26-22.997 51.165-51.167 51.165C22.997 103.333 0 80.428 0 52.168 0 23.906 22.997 1 51.164 1c28.17 0 51.167 22.906 51.167 51.168" fill="#FFF"/><path d="M2.574 52.168c0 26.765 21.8 48.542 48.59 48.542 26.794 0 48.593-21.777 48.593-48.542 0-26.769-21.799-48.546-48.593-48.546-26.79 0-48.59 21.777-48.59 48.546" fill="#57374D"/><path d="M13.59 55.797c.029.346.173.622.433.828.256.207.564.296.916.265.36-.03.648-.169.864-.417a1.15 1.15 0 0 0 .28-.889l-.125-1.446-2.493.213.125 1.446zm4.008-.342c.069.791-.14 1.481-.628 2.067-.485.585-1.117.912-1.894.98-.775.064-1.453-.149-2.031-.644-.58-.496-.905-1.139-.972-1.93l-.123-1.446-2.704.232-.14-1.623 8.229-.705.263 3.07zm-4.352 5.825l.607 2.245 2.946-2.032-3.553-.213zm-2.02 4.056l1.298-.895-.885-3.274-1.566-.09-.459-1.698 8.73.633.525 1.948-7.21 4.97-.434-1.594zM13.45 71c-.365-.734-.508-1.433-.427-2.096a2.93 2.93 0 0 1 .813-1.718l1.347.884c-.61.664-.706 1.418-.286 2.263.202.41.425.672.667.79a.76.76 0 0 0 .702.004c.26-.127.406-.344.435-.648.028-.305-.022-.799-.148-1.48a8.805 8.805 0 0 1-.12-.987 4.042 4.042 0 0 1 .055-.885c.052-.31.175-.588.368-.834.195-.247.461-.454.8-.62.67-.334 1.32-.36 1.954-.082.634.28 1.118.752 1.45 1.422.298.599.413 1.197.346 1.797a3.292 3.292 0 0 1-.695 1.668l-1.316-.874c.488-.611.571-1.242.248-1.888-.15-.303-.337-.507-.559-.611a.72.72 0 0 0-.662.005.75.75 0 0 0-.42.572c-.05.263-.022.713.082 1.347.04.261.071.459.09.594a9.4 9.4 0 0 1 .055.566c.02.24.02.433.004.577a4.39 4.39 0 0 1-.099.517c-.05.2-.12.37-.209.505a2.354 2.354 0 0 1-.368.42 2.36 2.36 0 0 1-.546.37c-.685.338-1.349.358-1.999.061-.646-.297-1.168-.844-1.562-1.64m3.99 6.447c-.488-.657-.754-1.317-.794-1.984a2.94 2.94 0 0 1 .49-1.838l1.486.63c-.482.761-.44 1.521.123 2.278.273.365.54.583.799.655a.76.76 0 0 0 .69-.117c.235-.175.339-.414.312-.719-.025-.303-.163-.78-.411-1.428a9.215 9.215 0 0 1-.296-.95 3.991 3.991 0 0 1-.103-.88c-.004-.315.067-.61.213-.888.148-.277.373-.528.676-.753.599-.447 1.235-.589 1.909-.43.674.16 1.233.54 1.68 1.14.4.535.62 1.103.66 1.706a3.287 3.287 0 0 1-.381 1.765l-1.452-.626c.369-.687.337-1.32-.094-1.9-.201-.272-.423-.439-.66-.502a.728.728 0 0 0-.652.124.752.752 0 0 0-.311.638c0 .27.107.707.323 1.311.086.248.15.438.195.57.043.128.095.31.157.545.06.232.097.422.107.566.009.146.008.321-.006.526a1.652 1.652 0 0 1-.115.536 2.273 2.273 0 0 1-.286.478 2.27 2.27 0 0 1-.471.461c-.612.457-1.264.595-1.955.42-.691-.176-1.302-.622-1.832-1.334m9.022-2.314l1.137 1.166-5.909 5.77-1.137-1.165zm-.213 8.116c.114.71.478 1.289 1.088 1.732.611.446 1.271.613 1.984.503.712-.11 1.298-.484 1.761-1.119.463-.636.638-1.312.524-2.027-.11-.714-.474-1.292-1.085-1.735-.61-.446-1.273-.611-1.987-.498-.715.113-1.303.488-1.765 1.123-.463.636-.636 1.31-.52 2.021m3.345 3.804c-1.162.181-2.226-.08-3.194-.783-.967-.703-1.542-1.635-1.724-2.792-.185-1.161.078-2.227.785-3.2.71-.974 1.641-1.552 2.802-1.734 1.158-.185 2.222.075 3.188.78.968.702 1.544 1.634 1.731 2.796.185 1.161-.074 2.229-.783 3.203-.707.973-1.64 1.55-2.805 1.73m10.082-3.136l1.504.626-3.171 7.626-1.145-.476-1.331-6.021-1.937 4.663-1.504-.626 3.171-7.626 1.142.475 1.339 6.005zm9.703 3.574l-3.279-.407-.243 1.943 3.187.396-.192 1.546-3.184-.396-.392 3.161-1.617-.2 1.016-8.196 4.895.607zm2.534-.077l.136 2.44 1.673-.093c.305-.017.563-.152.77-.403.205-.252.3-.548.28-.886a1.208 1.208 0 0 0-.376-.84 1.053 1.053 0 0 0-.81-.31l-1.673.092zm3.272 6.566L53.36 91.21l-1.23.067.158 2.864-1.626.09-.457-8.247 3.3-.184a2.656 2.656 0 0 1 1.986.693 2.65 2.65 0 0 1 .91 1.888 2.5 2.5 0 0 1-.358 1.444 2.745 2.745 0 0 1-1.1 1.05l1.998 3.008-1.755.096zm6.678-1.052c-.892.234-1.686.175-2.39-.18-.702-.35-1.163-.95-1.385-1.794l-1.41-5.376 1.563-.41 1.378 5.25c.11.419.316.718.62.899.302.18.71.203 1.22.07.51-.134.853-.353 1.027-.66.177-.305.21-.668.102-1.087l-1.377-5.25 1.573-.413 1.41 5.375c.222.845.114 1.594-.326 2.245-.438.65-1.108 1.095-2.005 1.33m1.797-9.436l1.498-.64 3.251 7.592-1.496.64zm7.235-3.827l.79 1.34-1.917 1.135 3.41 5.769-1.402.828-3.41-5.77-1.91 1.13-.792-1.34zm10.01 2.333c-.914.924-1.926 1.2-3.034.832l.42-1.561c.55.18 1.046.049 1.481-.391.306-.307.461-.608.465-.904.004-.294-.119-.566-.37-.816l-4.04-4.002 1.138-1.15 4.04 4.005c.613.609.9 1.276.86 1.998-.044.723-.362 1.386-.96 1.989m5.354-6.53c-.508.766-1.142 1.25-1.902 1.454-.76.205-1.502.065-2.228-.419l-4.628-3.077.895-1.346 4.518 3.006c.362.24.715.324 1.063.26.346-.068.664-.322.956-.76.292-.439.4-.83.33-1.177-.072-.345-.29-.639-.65-.879l-4.52-3.004.9-1.355 4.629 3.076c.728.482 1.145 1.114 1.25 1.893.106.778-.097 1.554-.612 2.328m-4.914-8.275l.69-1.475 7.479 3.507-.691 1.472zM91.76 63.44c-.343 1.197-1.022 2.068-2.04 2.618-1.02.551-2.11.658-3.272.324-1.174-.336-2.042-1.008-2.61-2.012-.565-1.007-.677-2.107-.333-3.302a4.213 4.213 0 0 1 1.075-1.845 3.865 3.865 0 0 1 1.777-1.03l.393 1.574c-.41.095-.77.295-1.073.601a2.58 2.58 0 0 0-.653 1.136c-.221.772-.158 1.464.19 2.075.348.612.906 1.03 1.679 1.25.764.218 1.456.163 2.074-.17.62-.333 1.04-.886 1.262-1.658.13-.454.149-.892.053-1.316a2.095 2.095 0 0 0-.582-1.07l1.17-1.125c.476.505.797 1.108.96 1.811a4.227 4.227 0 0 1-.07 2.14m-.39-7.242l.28-3.468 1.551.125-.41 5.093-8.234-.667.408-5.033 1.55.126-.274 3.41 1.752.14.253-3.116 1.53.125-.255 3.117zM18.746 41.471l-8.429-1.398.7-1.554 6.237 1.066-4.878-4.085.58-1.286 6.28.931-4.926-3.937.645-1.43 6.64 5.371-.76 1.688-5.642-.824 4.36 3.668zm4.352-8.408L18.3 29.63l.886-1.236 4.797 3.433-.886 1.237zm-4.934-4.459a.892.892 0 0 1-.606.37.893.893 0 0 1-.693-.155.913.913 0 0 1-.376-.61.888.888 0 0 1 .149-.698.896.896 0 0 1 .618-.376.905.905 0 0 1 .699.16.89.89 0 0 1 .372.606.908.908 0 0 1-.163.703zm5.476-3.238l-.886 1 1.836 1.627c.153.135.298.196.437.183.137-.014.278-.09.416-.23.14-.139.3-.323.482-.552l1.033.918c-.606.861-1.17 1.346-1.69 1.458-.52.113-1.083-.1-1.688-.638l-1.836-1.63-.681.768-1.095-.972.682-.766-.891-.79.666-1.445 1.235 1.096.885-.997 1.095.97zm2.464-4.384c.497-.411 1.045-.583 1.646-.521.599.066 1.142.393 1.63.98l2.309 2.79-1.172.972-2.19-2.646c-.25-.302-.524-.467-.822-.492-.295-.025-.58.075-.852.302-.303.249-.468.545-.495.883-.026.338.117.695.428 1.072l2.032 2.452-1.173.972-5.267-6.363 1.172-.971 1.926 2.327c-.065-.658.21-1.246.828-1.757m9.598-1.012c.405.164.823.15 1.256-.038.431-.19.73-.488.89-.897.16-.41.145-.836-.05-1.283-.196-.448-.496-.751-.906-.912-.409-.162-.83-.148-1.263.04-.433.19-.728.488-.886.895-.155.407-.138.836.058 1.28.194.449.496.754.901.915zm.918-4.924l1.394-.607 2.356 5.408-1.395.609-.278-.637c-.189.708-.662 1.227-1.419 1.557-.722.313-1.459.307-2.216-.02-.756-.327-1.307-.89-1.657-1.691-.348-.801-.385-1.59-.109-2.366.274-.776.773-1.321 1.493-1.634.76-.331 1.46-.323 2.107.02l-.276-.64zm10.27 3.624c-.81.105-1.517.013-2.118-.277a2.93 2.93 0 0 1-1.361-1.328l1.275-.988c.428.794 1.11 1.13 2.047 1.007.45-.058.772-.183.962-.375a.757.757 0 0 0 .234-.661c-.036-.288-.193-.497-.472-.622-.28-.127-.762-.24-1.448-.341a8.918 8.918 0 0 1-.973-.206 4.13 4.13 0 0 1-.82-.34 1.82 1.82 0 0 1-.67-.622 2.328 2.328 0 0 1-.326-.956c-.096-.742.09-1.366.56-1.875.47-.511 1.075-.812 1.814-.91.664-.087 1.268 0 1.813.259.545.257.997.657 1.352 1.198l-1.254.96c-.421-.658-.99-.942-1.706-.848-.336.044-.59.154-.76.33a.729.729 0 0 0-.21.628.747.747 0 0 0 .404.584c.234.133.669.254 1.303.36.258.047.457.082.59.108.135.025.318.07.552.13.234.06.416.122.547.185.133.062.284.15.457.262.173.113.312.234.41.362.1.13.194.29.277.483.085.192.143.403.173.637.099.757-.1 1.393-.59 1.909-.493.517-1.18.832-2.062.947m5.708-2.169c.286.333.662.513 1.135.545.47.033.87-.095 1.202-.385.33-.288.513-.677.546-1.162.034-.488-.095-.897-.383-1.227-.29-.33-.67-.513-1.141-.546-.47-.03-.87.098-1.196.386-.326.29-.507.678-.541 1.164-.033.486.094.895.378 1.225m1.742-4.204c.79.054 1.447.402 1.968 1.04.52.64.75 1.393.69 2.264-.058.871-.388 1.587-.99 2.15s-1.3.816-2.093.763c-.824-.056-1.44-.386-1.847-.989l-.207 3.047-1.52-.1.562-8.242 1.518.104-.048.693c.486-.542 1.143-.785 1.967-.73m3.215 6.536l1.807-8.421 1.488.319-1.807 8.421zm4.779-.584c.18.4.49.68.934.845.441.163.862.154 1.261-.029.4-.182.686-.503.855-.96.17-.457.163-.885-.022-1.285-.18-.399-.495-.681-.936-.846-.445-.163-.863-.154-1.258.03-.396.184-.679.505-.85.962-.169.459-.163.886.016 1.283zm4.077-2.909l1.427.53-2.055 5.531-1.427-.53.243-.653c-.626.38-1.328.426-2.102.138-.737-.274-1.266-.791-1.584-1.552-.317-.758-.324-1.548-.02-2.366.304-.82.825-1.413 1.56-1.78.737-.368 1.475-.417 2.213-.142.773.286 1.274.779 1.501 1.477l.244-.653zm3.579 3.637c-.081.136-.056.3.072.49.129.19.303.393.523.611.22.216.428.449.628.698.2.252.32.546.365.882.041.336-.037.676-.243 1.022-.306.522-.74.808-1.293.858-.558.05-1.127-.096-1.707-.44-1.043-.616-1.516-1.44-1.42-2.469l1.516.032c-.11.528.09.945.606 1.249.466.276.785.268.959-.023.08-.135.056-.298-.073-.488a4.43 4.43 0 0 0-.522-.617 8.226 8.226 0 0 1-.621-.71 1.845 1.845 0 0 1-.371-.87c-.049-.327.024-.655.22-.987.296-.502.715-.786 1.253-.857.54-.069 1.084.059 1.631.382.413.244.734.561.962.947.23.386.34.811.334 1.271l-1.48-.051c.044-.44-.125-.774-.506-.997a.856.856 0 0 0-.485-.139.4.4 0 0 0-.348.206m7.453 3.05c.49.417.758.927.799 1.528.042.603-.185 1.195-.678 1.777l-2.344 2.76-1.161-.982 2.222-2.62c.254-.3.369-.596.34-.892-.027-.298-.175-.561-.446-.79-.3-.253-.618-.364-.957-.33-.338.033-.664.235-.978.607l-2.062 2.429-1.16-.985 5.344-6.297 1.159.983-1.953 2.305c.638-.18 1.262-.012 1.875.507m3.298 9.341c-.157.703-.034 1.375.367 2.013.402.639.952 1.04 1.655 1.204.702.163 1.385.034 2.051-.383.667-.418 1.08-.981 1.241-1.686.16-.704.04-1.377-.36-2.016-.404-.64-.958-1.04-1.662-1.2-.705-.161-1.39-.033-2.057.386-.667.418-1.078.979-1.235 1.682m1.692 4.776c-1.146-.265-2.038-.902-2.675-1.915-.636-1.012-.824-2.091-.56-3.236.26-1.142.9-2.035 1.918-2.677 1.02-.64 2.101-.83 3.245-.568 1.145.26 2.034.899 2.671 1.91.636 1.013.824 2.092.565 3.24-.259 1.147-.897 2.042-1.917 2.68-1.019.643-2.1.83-3.247.566m7.46 2.771c-.25-.799-.715-1.064-1.395-.795l-.053.023.459 1.162-1.36.539-.461-1.163-4.124 1.634-.56-1.416 4.123-1.634-.311-.789 1.36-.538.313.789.054-.02c.775-.308 1.449-.325 2.02-.054.576.272 1.006.846 1.294 1.722l-1.36.54zm-19.089 8.761c-.437 4.262 2.4 4.981 4.07 3.628 1.385-1.12 1.592-4.338-.418-6.967-2.007-2.63-6.77-4.804-6.77-4.804s3.694 2.51 3.118 8.143M57.32 35.664c2.774 1.653 5.142 4.1 6.502 7.167 1.373 3.096 1.672 6.725.442 10.587-2.541 7.987-6.82 12.681-11.606 14.731a14.672 14.672 0 0 1-5.787 1.201c-2.758 0-5.355-.796-7.448-2.139-1.806-1.156-3.47-2.957-4.776-5.106a20.255 20.255 0 0 1-2.718-7.582 18.739 18.739 0 0 1 .877-8.972c1.092-3.076 3.059-6.081 6.102-8.809 2.648-2.372 5.902-3.464 9.15-3.55.142-.004.282-.006.422-.006 3.093 0 6.187.897 8.84 2.478" fill="#FFF"/><path d="M40.397 38.403c-11.146 9.988-5.624 23.179.229 26.93 5.855 3.756 16.716 2.485 21.514-12.59 4.266-13.404-12.916-22.251-21.743-14.34" fill="#FEBC11"/><path d="M56.985 46.096c.368-.716 1.045-1.103 1.507-.87.462.235.535 1.002.165 1.718-.37.714-1.046 1.103-1.506.869-.461-.234-.535-1.003-.166-1.717m-.903-2.168c-.592-.411-.812-1.135-.49-1.613.317-.48 1.06-.534 1.654-.122.592.413.815 1.135.494 1.615-.32.48-1.062.533-1.658.12m-3.835 1.728c.181-.776.745-1.34 1.263-1.252.514.084.788.784.61 1.559-.182.779-.746 1.339-1.262 1.253-.516-.083-.792-.783-.61-1.56m-2.745-1.938c.181-.777.745-1.337 1.263-1.252.514.086.788.784.61 1.561-.182.777-.746 1.337-1.262 1.253-.519-.085-.79-.785-.61-1.562m2.344-2.936c.09-.785.588-1.41 1.115-1.396.53.013.89.662.802 1.445-.088.786-.586 1.412-1.116 1.398-.528-.014-.888-.66-.801-1.447m-1.631 12.344c-.588-.159-.943-.66-.796-1.119.148-.46.745-.704 1.331-.543.588.162.946.663.799 1.123-.147.455-.746.7-1.334.54m-.595-3.765c-.467-.509-.537-1.239-.157-1.626.377-.388 1.061-.289 1.527.22.467.511.535 1.241.157 1.63-.379.388-1.063.29-1.527-.224m-2.658 5.488c-.382-.589-.346-1.33.077-1.659.423-.33 1.077-.122 1.457.462.385.585.348 1.328-.075 1.656-.425.331-1.079.124-1.459-.46m7.413-2.917c.733-.171 1.383.13 1.45.677.071.545-.469 1.129-1.202 1.3-.73.173-1.379-.13-1.45-.677-.067-.543.471-1.127 1.202-1.3m-3.767 4.482c.048-.778.514-1.425 1.041-1.441.528-.018.918.6.873 1.382-.049.779-.514 1.424-1.043 1.442-.526.017-.916-.604-.87-1.383m1.73 3.676c-.157-.743.134-1.482.651-1.654.518-.171 1.064.295 1.224 1.039.156.74-.135 1.482-.649 1.654-.52.169-1.067-.293-1.226-1.04m2.781-2.346c.051-.78.52-1.424 1.048-1.437.53-.014.915.607.865 1.388-.05.778-.518 1.424-1.048 1.437-.527.014-.914-.609-.865-1.388m2.263-3.337c.049-.78.519-1.424 1.046-1.44.528-.01.914.61.865 1.39-.053.78-.519 1.425-1.048 1.438-.529.014-.915-.607-.863-1.388m1.276-3.774c-.735.126-1.36-.222-1.397-.773-.037-.554.532-1.103 1.267-1.227.737-.126 1.363.222 1.401.775.033.55-.536 1.1-1.27 1.225m-3.669-1.018c-.187.771-.755 1.321-1.265 1.231-.512-.093-.776-.789-.588-1.56.187-.77.753-1.32 1.263-1.229.516.091.777.79.59 1.558m-7.101-5.911c-.188.771-.755 1.321-1.27 1.23-.507-.09-.771-.788-.583-1.56.185-.77.753-1.32 1.263-1.228.514.091.777.787.59 1.558m2.207 19.592c-.72-.103-1.208-.633-1.092-1.188.12-.557.798-.922 1.518-.82.72.102 1.208.635 1.092 1.19-.12.554-.8.922-1.518.818m-3.058-1.256c-.31.736-.95 1.184-1.434.997-.479-.186-.617-.934-.31-1.671.31-.736.95-1.18 1.43-.997.481.187.621.934.314 1.671m-.695-4.515c-.307.735-.946 1.184-1.43 1-.48-.19-.617-.937-.308-1.672.308-.736.947-1.182 1.427-.997.482.184.622.934.31 1.67m-2.727 4.027c-.307.737-.949 1.184-1.429.999-.482-.187-.62-.934-.31-1.672.308-.735.95-1.181 1.428-.996.481.184.621.932.311 1.669m-3.048-2.95c-.08.78-.569 1.408-1.096 1.4-.525-.006-.888-.646-.81-1.428.076-.779.566-1.407 1.093-1.4.528.008.889.645.813 1.428m-1.705-2.854c-.078.781-.565 1.408-1.093 1.4-.525-.008-.89-.645-.814-1.425.081-.781.568-1.409 1.097-1.401.523.006.887.647.81 1.426m1.409-6.741c.12-.777.64-1.376 1.164-1.339.522.041.848.704.726 1.483-.122.778-.641 1.38-1.162 1.336-.524-.039-.848-.702-.728-1.48m-1.844 2.934c-.027.78-.478 1.44-1.01 1.467-.526.034-.93-.576-.903-1.355.027-.779.48-1.437 1.01-1.467.527-.029.934.578.903 1.355m2.973-6.75c-.102.778-.605 1.394-1.13 1.371-.524-.022-.87-.673-.772-1.452.1-.78.604-1.396 1.13-1.373.522.024.87.675.772 1.454m1.843-3.695c.633.34.983.914.782 1.285-.198.37-.875.395-1.506.055-.63-.338-.983-.913-.785-1.285.203-.367.878-.393 1.51-.055m-2.774 11.256c.319-.731.966-1.168 1.443-.975.479.196.605.944.286 1.677-.32.732-.963 1.17-1.442.978-.475-.196-.605-.946-.287-1.68m3.731-.872c.32-.729.964-1.166 1.441-.974.48.195.604.944.286 1.676-.319.734-.963 1.17-1.44.977-.477-.192-.607-.946-.287-1.679m2.806-4.726c.694.189 1.119.779.946 1.322-.175.543-.879.83-1.575.647-.698-.19-1.123-.781-.95-1.324.176-.542.881-.832 1.579-.645m1.456-7.613c.183-.77.749-1.322 1.263-1.232.508.088.776.785.591 1.555-.182.77-.749 1.324-1.262 1.233-.511-.089-.777-.782-.592-1.556m-2.274.855c-.684-.228-1.075-.846-.875-1.378.199-.539.917-.789 1.602-.561.68.226 1.075.844.875 1.378-.202.536-.917.787-1.602.561m-1.828 4.736c.696.188 1.12.779.946 1.323-.175.543-.88.832-1.576.643-.698-.186-1.123-.78-.947-1.321.174-.543.88-.832 1.578-.645m5.621 13.8c-.308.735-.947 1.182-1.43.997-.48-.187-.618-.935-.31-1.672.31-.735.95-1.179 1.43-.996.48.186.62.933.31 1.671" fill="#57374D"/><path fill="#881913" d="M59.375 31.992l-3.845 5.213 1.788 1.131 3.516-5.66z"/><path d="M69.913 35.443c3.013-.24 3.152-2.3 1.998-3.29-.956-.818-3.216-.549-4.782 1.182-1.572 1.731-2.47 5.313-2.47 5.313s1.27-2.885 5.254-3.205" fill="#FFF"/><path d="M56.74 39.332l.603-.995.006-.008-1.784-1.13-.014.023-.668.912 1.858 1.198zm1.779-2.891l1.457-.28.035-.005 1.79-2.871.084-.167.069-.238.014-.236-.033-.236-.091-.23-.134-.197-.173-.167-.21-.132-1.455-.69-.077-.027-.23-.063-.244-.014-.238.04-.222.099-.195.14-.167.173-1.937 2.635.028.11.027.12.266 1.206.019.014 2.502-3.387 1.408.669-2.313 3.72.02.014z" fill="#881913"/></g></svg>