<svg width="106" height="107" viewBox="0 0 106 107" xmlns="http://www.w3.org/2000/svg"><title>seal-tangerine</title><g fill="none" fill-rule="evenodd"><path d="M105.386 46.888c3.891 28.971-16.533 55.62-45.413 59.5C31.096 110.263 4.366 89.948.475 60.977c-3.89-28.976 16.532-55.626 45.41-59.504 28.88-3.878 55.61 16.44 59.501 45.414" fill="#FFF"/><path d="M3.115 60.622c3.685 27.44 29.031 46.764 56.498 43.076 27.468-3.689 46.818-29.017 43.133-56.456C99.061 19.798 73.714.474 46.246 4.163 18.778 7.851-.572 33.178 3.115 60.623" fill="#CA3625"/><path fill="#FFF" d="M23.37 72.737l-1.432.739-1.059-2.05-6.159 3.182-.773-1.496 6.16-3.182-1.053-2.037 1.432-.74zm-3.185 4.751l1.462 1.908 2.02-3.101-3.482 1.193zm-.339 4.673l.89-1.366-2.134-2.786-1.533.529-1.106-1.443 8.6-2.823 1.27 1.655-4.949 7.59-1.038-1.356zm11.731-.606l1.283 1.09-5.53 6.514-.978-.83.592-6.351-3.382 3.982-1.283-1.091 5.53-6.511.976.826-.578 6.34zm7.604 8.963l-.3.585c-.557 1.087-1.354 1.79-2.394 2.108-1.04.318-2.11.197-3.212-.366-1.173-.6-1.95-1.48-2.332-2.64-.38-1.157-.289-2.288.275-3.39.566-1.108 1.427-1.851 2.585-2.227 1.156-.378 2.3-.277 3.43.3a4.45 4.45 0 0 1 1.698 1.479c.422.622.66 1.286.711 1.988l-1.66.083c-.022-.404-.166-.797-.43-1.181a2.878 2.878 0 0 0-1.074-.918c-.724-.37-1.442-.438-2.15-.202-.71.236-1.25.715-1.622 1.44-.367.717-.432 1.43-.196 2.14.235.71.744 1.266 1.526 1.666.58.295 1.125.412 1.637.35a2.157 2.157 0 0 0 1.32-.662l-2.305-1.178.678-1.326 3.815 1.95zm2.189 3.606l3.477.934-.418 1.555-5.104-1.368 2.213-8.253 5.046 1.355-.418 1.555-3.418-.918-.47 1.757 3.123.84-.412 1.532-3.124-.839zm7.407-3.951l-.197 2.52 1.728.135c.317.023.597-.078.844-.308.246-.23.384-.519.411-.867a1.261 1.261 0 0 0-.272-.916 1.087 1.087 0 0 0-.786-.429l-1.728-.135zm2.452 7.183l-1.492-3.093-1.272-.097-.23 2.957-1.679-.132.664-8.517 3.407.264a2.75 2.75 0 0 1 1.943.986c.508.593.733 1.281.672 2.058a2.611 2.611 0 0 1-.564 1.433 2.837 2.837 0 0 1-1.272.922l1.636 3.36-1.813-.14zm3.027-8.568l1.681-.107.545 8.527-1.68.107zm7.603-1.107l1.647-.354 1.79 8.354-1.254.269-4.674-4.341 1.094 5.107-1.647.353-1.79-8.354 1.252-.268 4.672 4.323zm6.819 4.985l3.31-1.415.634 1.48-4.86 2.078-3.358-7.855 4.803-2.054.634 1.483-3.255 1.39.716 1.672 2.973-1.271.623 1.458-2.972 1.273zm10.782-4.158c-1.06.826-2.133.976-3.222.451l.637-1.547c.541.258 1.065.192 1.572-.203.353-.276.552-.563.596-.866.043-.302-.047-.597-.272-.887l-3.615-4.642 1.32-1.027 3.613 4.641c.551.708.757 1.43.618 2.166-.138.737-.554 1.374-1.247 1.914m6.32-5.954c-.625.717-1.34 1.132-2.147 1.238-.805.11-1.548-.134-2.23-.726l-4.337-3.773 1.097-1.262 4.236 3.685c.339.295.689.43 1.054.407.365-.023.725-.24 1.083-.65.358-.41.523-.8.494-1.163-.027-.365-.21-.694-.548-.987l-4.236-3.686 1.106-1.27 4.337 3.772c.68.594 1.024 1.295 1.028 2.108.006.813-.308 1.583-.937 2.307m-3.95-9.116l.909-1.42 7.193 4.61-.908 1.418zm11.226-2.51c-.513 1.18-1.329 1.982-2.447 2.41-1.118.426-2.252.388-3.4-.112-1.156-.504-1.956-1.31-2.402-2.419-.444-1.107-.409-2.25.104-3.429a4.369 4.369 0 0 1 1.353-1.747 4.006 4.006 0 0 1 1.961-.817l.191 1.668a2.258 2.258 0 0 0-1.182.47 2.666 2.666 0 0 0-.823 1.08c-.332.76-.36 1.478-.087 2.152.275.675.793 1.177 1.553 1.51.753.327 1.471.363 2.15.104.681-.258 1.187-.767 1.52-1.527.194-.449.271-.897.231-1.344a2.185 2.185 0 0 0-.452-1.176l1.352-.995c.421.582.668 1.245.74 1.987a4.33 4.33 0 0 1-.362 2.185m.568-7.424l.76-3.52 1.575.34-1.116 5.165-8.351-1.805 1.104-5.105 1.574.34-.747 3.46 1.778.384.682-3.162 1.552.337-.685 3.16zM18.222 47.428l-8.834-.273.503-1.69 6.54.235-5.562-3.516.417-1.4 6.566.09-5.591-3.357.463-1.555 7.546 4.592-.547 1.836-5.895-.068 4.973 3.16zm3.302-9.218l-5.39-2.86.736-1.39 5.392 2.86-.738 1.39zm-5.672-3.894a.921.921 0 0 1-.57.464.93.93 0 0 1-.732-.064.947.947 0 0 1-.47-.574.922.922 0 0 1 .057-.736.935.935 0 0 1 .582-.47.946.946 0 0 1 .74.066.92.92 0 0 1 .463.572.933.933 0 0 1-.07.742zm5.168-4.072l-.77 1.146 2.106 1.416c.175.117.333.16.474.127.139-.032.272-.13.395-.294.124-.16.264-.373.417-.63l1.186.797c-.503.967-1.014 1.541-1.531 1.727-.518.188-1.124.047-1.82-.42l-2.106-1.42-.592.883-1.256-.846.593-.88-1.023-.689.484-1.572 1.418.955.77-1.145 1.255.845zm1.923-4.834c.453-.49.991-.744 1.615-.76.624-.016 1.226.244 1.806.78l2.752 2.541-1.069 1.159-2.608-2.412c-.299-.274-.602-.407-.91-.392-.307.017-.585.157-.833.427-.277.299-.404.623-.385.974.02.35.215.697.585 1.04l2.421 2.235-1.069 1.158-6.275-5.798 1.068-1.159 2.296 2.122c-.159-.666.043-1.306.606-1.915m9.7-2.36c.437.112.865.04 1.283-.212.417-.252.68-.6.79-1.042.107-.441.032-.876-.23-1.308-.26-.432-.612-.701-1.053-.811-.442-.108-.872-.037-1.29.216-.417.254-.679.6-.784 1.039-.104.439-.027.876.235 1.306.261.432.611.703 1.05.813zm.263-5.174l1.347-.814 3.16 5.22-1.347.816-.373-.615c-.096.752-.509 1.349-1.24 1.792-.696.42-1.454.516-2.274.285-.82-.232-1.464-.733-1.932-1.506-.468-.773-.614-1.577-.439-2.411.176-.833.611-1.461 1.308-1.881.731-.443 1.452-.532 2.162-.268l-.372-.618zm11.029 2.301c-.816.22-1.553.223-2.209.008a3.038 3.038 0 0 1-1.58-1.175l1.171-1.187c.55.753 1.294 1.004 2.237.75.456-.122.768-.294.935-.517a.786.786 0 0 0 .151-.71.782.782 0 0 0-.572-.572c-.302-.092-.813-.14-1.53-.152a9.169 9.169 0 0 1-1.028-.076 4.231 4.231 0 0 1-.884-.236 1.86 1.86 0 0 1-.773-.546 2.356 2.356 0 0 1-.466-.935c-.202-.747-.097-1.412.315-1.999.411-.588.99-.98 1.734-1.183.67-.18 1.3-.174 1.895.016a3.388 3.388 0 0 1 1.551 1.043l-1.155 1.157c-.52-.618-1.142-.83-1.865-.635-.337.091-.582.238-.734.443a.754.754 0 0 0-.128.673c.07.26.235.441.494.542.26.104.721.168 1.384.191.274.012.48.02.621.03.142.007.336.027.585.057.248.03.444.067.586.114.143.045.311.114.505.205.193.092.35.197.47.315.121.12.237.271.35.456.113.186.201.394.265.63.204.762.09 1.441-.343 2.04-.433.596-1.094 1.013-1.982 1.253m5.553-3.009c.338.301.75.435 1.238.403.487-.03.88-.218 1.179-.56.3-.342.434-.765.4-1.268-.032-.504-.22-.906-.561-1.205-.342-.299-.757-.433-1.244-.402-.487.033-.878.22-1.174.56-.295.343-.427.765-.394 1.268.033.503.219.905.556 1.204m1.206-4.549c.82-.055 1.54.212 2.162.794.622.584.962 1.325 1.02 2.226.06.902-.18 1.681-.72 2.341-.54.66-1.22 1.016-2.04 1.07-.853.056-1.53-.197-2.031-.759l.207 3.152-1.572.105-.558-8.525 1.57-.103.048.717c.423-.622 1.062-.962 1.914-1.018m4.196 6.257l.693-8.882 1.57.122-.692 8.882zm4.82-1.256c.239.384.597.628 1.073.738.476.105.907.037 1.29-.204.385-.242.634-.61.744-1.102.11-.492.045-.93-.198-1.314-.242-.384-.602-.631-1.078-.74-.476-.106-.904-.038-1.285.205-.38.244-.626.612-.737 1.104-.11.494-.047.93.192 1.313zm3.779-3.545l1.536.348-1.344 5.952-1.536-.346.158-.703c-.59.476-1.302.62-2.135.43-.794-.178-1.407-.637-1.837-1.372-.431-.733-.546-1.543-.348-2.423.199-.883.65-1.563 1.356-2.04.704-.48 1.454-.63 2.247-.45.833.188 1.415.624 1.744 1.307l.159-.703zm4.169 3.237c-.064.15-.016.315.143.492.158.177.365.362.62.554.255.192.5.402.739.63a1.8 1.8 0 0 1 .495.854c.09.338.056.698-.106 1.08-.245.578-.648.93-1.21 1.059-.563.127-1.166.056-1.811-.216-1.154-.49-1.752-1.268-1.794-2.337l1.559-.175c-.042.557.222.956.792 1.197.516.219.843.167.98-.156.063-.15.015-.313-.143-.49a4.503 4.503 0 0 0-.618-.56 8.795 8.795 0 0 1-.736-.643 1.9 1.9 0 0 1-.5-.841c-.094-.328-.064-.675.09-1.043.236-.554.625-.903 1.167-1.05.544-.146 1.119-.088 1.727.167.457.193.829.474 1.116.838.288.364.46.784.515 1.258l-1.522.15c-.018-.456-.237-.776-.657-.952a.888.888 0 0 0-.518-.075.415.415 0 0 0-.328.259m8.062 2.1c.561.359.903.847 1.03 1.457.124.613-.027 1.251-.453 1.915l-2.02 3.153-1.327-.848 1.916-2.991c.22-.342.296-.663.227-.962-.069-.302-.258-.551-.566-.748-.342-.219-.684-.289-1.026-.207-.342.08-.649.332-.92.757l-1.779 2.774-1.325-.85 4.61-7.191 1.326.848-1.686 2.631c.63-.272 1.293-.185 1.992.262m4.668 9.122c-.064.743.154 1.415.653 2.013.5.6 1.12.936 1.863 1.007.74.07 1.425-.156 2.05-.675.626-.521.972-1.155 1.04-1.899.067-.745-.148-1.417-.648-2.018-.5-.6-1.123-.933-1.867-1.002-.746-.068-1.431.158-2.055.679-.626.521-.971 1.153-1.036 1.895m2.392 4.664c-1.212-.114-2.213-.645-3.005-1.595-.791-.95-1.133-2.03-1.021-3.24.109-1.207.643-2.211 1.599-3.009.956-.796 2.039-1.14 3.248-1.029 1.209.11 2.21.641 3.002 1.591.79.95 1.133 2.03 1.026 3.243-.108 1.211-.64 2.217-1.597 3.013-.957.798-2.04 1.139-3.252 1.026m8.029 1.814c-.365-.785-.878-.992-1.538-.623l-.053.03.632 1.129-1.32.74-.633-1.13-4.003 2.244-.77-1.374 4.003-2.243-.428-.766 1.319-.74.43.767.053-.03c.752-.421 1.44-.531 2.066-.333.625.2 1.146.73 1.56 1.589l-1.318.74z"/><path d="M34.658 62.93c-4.762-4.909-5.866-10.849-5.977-14.858-.044-1.612.65-3.15 1.898-4.22 1.26-1.073 2.897-1.519 4.499-1.22l38.354 7.155c2.112.393 2.834 1.688 3.075 2.426.727 2.207-.678 5.426-3.855 8.83-7.965 8.534-18.2 10.66-24.805 8.98-6.116-1.554-10.32-4.136-13.19-7.094m38.31-10.656l-38.353-7.156a2.862 2.862 0 0 0-2.39.658 2.811 2.811 0 0 0-1.012 2.227c.193 6.977 3.344 16.034 17.256 19.57 8.126 2.065 17.273-2.83 22.335-8.256 2.734-2.927 3.629-5.325 3.304-6.313-.052-.152-.183-.553-1.14-.73" fill="#D51E28"/><path d="M63.206 39.075c1.653-2.712-.013-4.099-1.564-3.729-1.285.308-2.45 2.396-1.946 4.795.503 2.402 2.994 5.378 2.994 5.378s-1.669-2.859.516-6.444m-28.15 3.667l38.355 7.154c.9.167 1.687.526 2.263 1.13.585.612.86 1.38.905 2.18.044.782-.127 1.603-.428 2.411-.303.815-.753 1.662-1.315 2.513-2.147 3.247-6.131 6.86-10.903 9.33-2.664 1.379-5.614 2.422-8.667 2.832-2.43.326-4.925.251-7.393-.376-7.902-2.01-12.666-5.77-15.458-9.944-2.775-4.15-3.53-8.602-3.621-11.903-.076-2.76 2.029-5.024 4.61-5.37a5.197 5.197 0 0 1 1.652.044" fill="#FFF"/><path d="M71.528 51.217L35.993 44.59c-2.375-.442-4.604 1.462-4.539 3.856.163 5.863 2.681 15.63 16.874 19.234 14.673 3.73 31.145-14.98 23.2-16.463m-26.246-2.5a.565.565 0 0 1 .385.12c.117.097.17.23.19.355.017.122.005.253-.02.38-.054.256-.177.561-.348.89-.344.663-.912 1.484-1.62 2.312-.709.827-1.435 1.517-2.04 1.964-.3.222-.585.394-.83.488a1.326 1.326 0 0 1-.283.076.974.974 0 0 1-.092.007.562.562 0 0 1-.38-.12.55.55 0 0 1-.192-.355 1.088 1.088 0 0 1 .02-.38c.051-.256.175-.56.346-.889.345-.662.913-1.483 1.621-2.309.707-.828 1.432-1.519 2.038-1.967.301-.222.585-.394.831-.489.095-.036.191-.064.287-.077a.85.85 0 0 1 .087-.007m4.595.23c.177.088.242.261.266.391.025.135.02.293-.002.457-.043.332-.159.765-.332 1.264-.346 1.002-.935 2.32-1.683 3.718-.749 1.4-1.52 2.627-2.167 3.481-.32.425-.619.768-.873.994a1.614 1.614 0 0 1-.38.264.678.678 0 0 1-.198.06.457.457 0 0 1-.269-.04c-.176-.088-.24-.26-.265-.39a1.495 1.495 0 0 1 .001-.458c.042-.33.16-.765.331-1.264.347-1.002.936-2.32 1.685-3.72.748-1.399 1.52-2.626 2.165-3.48.322-.425.62-.768.874-.993.127-.112.255-.206.381-.264a.68.68 0 0 1 .197-.06.463.463 0 0 1 .27.04m3.644.371a.44.44 0 0 1 .256.142.7.7 0 0 1 .122.207c.055.138.088.316.108.51.041.396.036.942-.008 1.594-.088 1.308-.335 3.088-.72 5.03-.384 1.94-.834 3.686-1.254 4.942-.209.626-.414 1.141-.604 1.498a2.143 2.143 0 0 1-.294.442.725.725 0 0 1-.186.15.467.467 0 0 1-.282.053.43.43 0 0 1-.255-.143.678.678 0 0 1-.123-.206 2.029 2.029 0 0 1-.107-.51c-.04-.396-.035-.943.01-1.594.088-1.308.335-3.087.718-5.027.384-1.94.835-3.688 1.255-4.944.21-.627.414-1.14.603-1.499a2.17 2.17 0 0 1 .294-.442.764.764 0 0 1 .185-.15.467.467 0 0 1 .282-.053m3.665 1.021c.1.095.188.226.265.37.157.29.31.703.452 1.2.287.997.552 2.384.73 3.926.178 1.54.237 2.956.185 4.004-.025.521-.079.964-.164 1.29-.042.161-.095.31-.168.427-.07.113-.188.246-.375.274l-.007.001a.529.529 0 0 1-.432-.162 1.487 1.487 0 0 1-.265-.369c-.156-.29-.308-.705-.45-1.2-.289-.999-.554-2.385-.732-3.926-.177-1.54-.237-2.958-.186-4.005.026-.522.08-.965.164-1.29.042-.16.096-.31.17-.428.07-.113.19-.246.375-.273h.007a.525.525 0 0 1 .431.161m3.977.977c.118.04.227.11.327.193.2.164.405.413.606.712.404.604.83 1.473 1.185 2.463.356.99.583 1.932.658 2.661.038.362.04.687-.007.944a1.177 1.177 0 0 1-.123.361.58.58 0 0 1-.415.294.609.609 0 0 1-.28-.032 1.08 1.08 0 0 1-.327-.193c-.2-.164-.405-.413-.606-.712-.404-.603-.829-1.47-1.186-2.46-.356-.99-.582-1.935-.657-2.663-.038-.363-.039-.688.008-.945.023-.128.061-.253.123-.36a.588.588 0 0 1 .415-.295.603.603 0 0 1 .28.032" fill="#F15F49"/><path d="M73.585 46.213c5.164-1.514 4.557-5.127 2.137-6.416-2.003-1.066-5.839.218-7.87 3.785-2.032 3.561-2.128 10.087-2.128 10.087s1.031-5.45 7.861-7.456" fill="#FFF"/></g></svg>