<svg width="103" height="105" viewBox="0 0 103 105" xmlns="http://www.w3.org/2000/svg"><title>seal-coco</title><g fill="none" fill-rule="evenodd"><path d="M102.468 53.695c-.8 28.29-24.384 50.574-52.674 49.773C21.504 102.667-.78 79.084.021 50.794.822 22.504 24.403.22 52.692 1.02c28.28.827 50.548 24.394 49.776 52.674" fill="#FFF"/><path d="M2.594 50.874c-.785 26.87 20.36 49.286 47.23 50.071 26.87.784 49.286-20.362 50.07-47.23.784-26.869-20.362-49.287-47.23-50.07l-.046-.002C25.773 2.9 3.393 24.03 2.594 50.874" fill="#008BBF"/><path d="M64.107 42.054c-2.813-3.364-7.214-5.629-13.176-5.787a26.937 26.937 0 0 0-2.74.082c-5.66.395-9.778 2.152-12.499 4.784a13.725 13.725 0 0 0-4.092 9.674c-.13 4.988 1.908 10.25 5.36 14.346 3.45 4.096 8.344 7.041 13.953 7.2a16.37 16.37 0 0 0 3.088-.194l-.129-.9-.006-.037.033-.008.007.044.127.883a15.378 15.378 0 0 0 10.172-6.43 20.98 20.98 0 0 0 3.804-11.556c.113-4.36-1.089-8.736-3.902-12.1" fill="#80BA00"/><path d="M44.786 64.76c-13.247-6.73-7.484-32.11 11.495-25.057 17.277 6.431 3.678 32.786-11.495 25.056" fill="#B9D274"/><path d="M58.024 62.803C43.59 67.297 21.121 45.066 45.057 38.661c20.613-5.525 27.868 19.514 12.967 24.142" fill="#EBF0D3"/><path d="M54.905 54.423c-12.89 4.872-28.13-9.96-9.784-15.578 16.716-5.117 21.026 11.35 9.784 15.578" fill="#FFF"/><path d="M56.86 53.859c-9.208 4.175-20.543-9.692-7.394-14.412 11.98-4.316 15.428 10.798 7.39 14.434" fill="#E2EABE"/><path fill="#028B00" d="M64.233 40.274l-.794-.763-.077-.064-.865-.716-.083-.06-.932-.657-.079-.053-1-.592-.08-.042-1.068-.539-.084-.049-1.13-.463-.084-.024-1.186-.408-.089-.026-1.263-.321-.084-.019-1.08-.206-.317.291-.075.069-.089.085-.043.051-.7.659-.006.034.74.088 1.325.251 1.264.321 1.192.403 1.12.467 1.066.54 1.002.587.932.657.86.715.798.769.733.817.798 1.035.702 1.084.607 1.144.512 1.187.428 1.208.341 1.247.256 1.274.166 1.294.084 1.293.002 1.303-.1 1.547-.214 1.53-.315 1.519-.433 1.489-.524 1.446-.632 1.393-.733 1.343-.845 1.273-.743.965-.81.903-.869.846-.922.781-.997.699-1.049.627-1.115.535-1.155.454-1.218.346-1.275.255-1.04.136-1.022.059-1.014.001-1.392-.093-1.344-.213-1.317-.307-1.29-.413-1.235-.502-1.203-.596-1.15-.668-1.109-.749-1.055-.827-.996-.876-.957-.951-.888-1.003-.903-1.139-.835-1.192-.755-1.231-.665-1.286-.59-1.31-.503-1.33-.41-1.35-.328-1.372-.224-1.367-.119-1.368-.016-1.363.08-1.192.16-1.162.258-1.157.347-1.126.45-1.087.55-1.059.63-1.018.752-.946.856-.913.857-.761.933-.704 1.03-.653 1.11-.577 1.2-.522 1.288-.456 1.382-.389 1.468-.312 1.565-.232 1.642-.163.951-.046-.002-.029-.474-.186-.495-.165-.016-.008-.526-.153-1.099-.296-.084-.019-.055-.02-.682-.154-.919.138-.072.012-1.473.311-.08.027-1.38.384-.074.023-1.294.455-.092.038-1.2.522-.083.044-1.11.583-.097.054-1.029.653-.07.047-.95.701-.09.084-.857.762-.082.08-.85.913-.076.075-.754.957-.075.11-.642 1.021-.063.101-.545 1.065-.044.092-.45 1.098-.043.115-.345 1.121-.028.105-.259 1.158-.017.107-.16 1.167-.016.09-.079 1.198-.007.115.022 1.364.006.099.12 1.374.014.089.218 1.366.024.102.322 1.372.026.085.412 1.35.023.074.501 1.335.04.082.59 1.315.03.063.672 1.281.045.077.76 1.238.034.069.836 1.192.047.071.908 1.14.043.058.89 1.004.055.049.951.944.065.063 1.006.883.056.049 1.056.828.08.053 1.103.742.057.043 1.148.68.086.043 1.208.597.088.031 1.24.503.087.037 1.29.413.1.027 1.323.308.09.02 1.345.207.114.013 1.396.099.087.002 1.013-.001.076-.005 1.024-.064.088-.009 1.045-.13.08-.017 1.277-.249.102-.024 1.22-.351.105-.042 1.165-.446.1-.048 1.111-.542.1-.048 1.05-.627.083-.056.996-.699.08-.068.934-.773.073-.064.87-.846.068-.071.805-.914.06-.072.748-.964.046-.074.844-1.273.061-.095.734-1.343.05-.09.632-1.4.044-.097.524-1.445.026-.083.432-1.489.016-.102.316-1.519.02-.089.214-1.535.01-.097.1-1.548.003-.092-.002-1.303-.005-.082-.088-1.305-.006-.076-.165-1.294-.008-.094-.257-1.268-.024-.102-.34-1.247-.035-.081-.42-1.219-.038-.092-.518-1.188-.042-.1-.617-1.145-.05-.089-.702-1.09-.057-.079-.58-.757-.164-.101-.138-.115-.078-.059-.16-.152-.15-.157-.128-.177-.127-.182-.094-.212-.05-.089z"/><path d="M70.9 37.555c2.933.048 3.26-1.973 2.22-3.053-.849-.893-3.057-.843-4.745.714-1.689 1.556-2.848 5.003-2.848 5.003s1.496-2.722 5.384-2.662m-23.826-2.923c-4.168-2.635-2.826-5.769-.431-6.344 1.987-.479 5.046 1.627 6.025 5.354.978 3.727-.375 9.68-.375 9.68s.313-5.197-5.197-8.686M22.725 75.404l-.709.42a4.904 4.904 0 0 1-3.915.625 5.184 5.184 0 0 1-3.132-2.523 5.55 5.55 0 0 1-.699-4.325 5.296 5.296 0 0 1 2.557-3.382 5.49 5.49 0 0 1 7.607 1.975c.495.811.771 1.737.803 2.686a4.99 4.99 0 0 1-.575 2.561l-1.8-1.015a2.81 2.81 0 0 0 .334-1.527 3.638 3.638 0 0 0-.522-1.68 3.35 3.35 0 0 0-2.125-1.646 3.43 3.43 0 0 0-2.682.45 3.317 3.317 0 0 0-1.627 2.121 4.002 4.002 0 0 0 1.983 4.223c.57.271 1.218.335 1.83.18l-1.64-2.773 1.592-.946 2.72 4.576zm1.508 5.392a3.431 3.431 0 0 0 6.111 1.848c.625-.696.933-1.62.85-2.552a3.516 3.516 0 0 0-3.753-3.136 3.66 3.66 0 0 0-3.208 3.84m3.97 5.174a5.594 5.594 0 1 1 3.758-1.982 5.356 5.356 0 0 1-3.758 1.982m7.222 2.255a3.539 3.539 0 0 0 4.59 1.688 3.66 3.66 0 0 0 1.721-4.7 3.516 3.516 0 0 0-4.59-1.683 3.397 3.397 0 0 0-1.793 2.032 3.36 3.36 0 0 0 .072 2.663m5.483 3.532a5.598 5.598 0 1 1 2.86-3.13 5.335 5.335 0 0 1-2.86 3.13m9.087.502a2.94 2.94 0 0 0 2.26-.893 3.746 3.746 0 0 0 .058-4.785 2.963 2.963 0 0 0-2.237-.933l-2.127-.024-.082 6.622 2.128.013zm.104-8.628a4.86 4.86 0 0 1 3.635 1.583 5.61 5.61 0 0 1-.094 7.58 4.841 4.841 0 0 1-3.67 1.493l-4.225-.05.132-10.632 4.222.026zm11.665-1.708l2.013-.573 2.882 10.212-1.535.435-6.15-5.027 1.776 6.251-1.975.596-2.897-10.227 1.528-.435 6.158 4.987zm9.166 5.187l3.837-2.287 1.03 1.72-5.64 3.373-5.458-9.12 5.577-3.338 1.03 1.722-3.779 2.26 1.16 1.922 3.453-2.064 1.018 1.695-3.455 2.064zm10.136-4.955a4.735 4.735 0 0 1-2.387 1.359 3.742 3.742 0 0 1-2.43-.298l.537-2.005a2.385 2.385 0 0 0 2.88-.563 2.09 2.09 0 0 0 .695-1.135 1.005 1.005 0 0 0-1.245-1.13 8.143 8.143 0 0 0-1.754.8 10.86 10.86 0 0 1-1.158.552 5.501 5.501 0 0 1-1.1.289 2.396 2.396 0 0 1-1.169-.116 2.98 2.98 0 0 1-1.079-.75 2.86 2.86 0 0 1-.889-2.358 3.758 3.758 0 0 1 1.153-2.342 4.124 4.124 0 0 1 2.057-1.15 4.267 4.267 0 0 1 2.318.176l-.537 1.964a2.104 2.104 0 0 0-2.389.46c-.275.243-.46.57-.524.932a.948.948 0 0 0 .278.808.97.97 0 0 0 .87.282 5.919 5.919 0 0 0 1.613-.647l.687-.35c.157-.078.381-.176.666-.293.432-.2.901-.311 1.377-.326a2.2 2.2 0 0 1 .705.048c.23.066.45.159.656.278a3.132 3.132 0 0 1 1.562 2.939 4.33 4.33 0 0 1-1.393 2.576m6.31-8.073a4.734 4.734 0 0 1-1.985 1.897 3.747 3.747 0 0 1-2.432.292l.039-2.072a2.392 2.392 0 0 0 2.663-1.24 2.12 2.12 0 0 0 .403-1.268.992.992 0 0 0-.458-.767.983.983 0 0 0-1.008-.027 7.687 7.687 0 0 0-1.506 1.175c-.317.288-.65.559-.997.809-.307.21-.636.387-.981.528a2.352 2.352 0 0 1-1.184.165 2.94 2.94 0 0 1-1.22-.448 2.858 2.858 0 0 1-1.41-2.07c-.13-.89.068-1.797.555-2.552a4.128 4.128 0 0 1 1.726-1.61 4.195 4.195 0 0 1 2.29-.383l-.05 2.03a2.123 2.123 0 0 0-2.23 1.025c-.208.3-.307.663-.278 1.027a.93.93 0 0 0 .465.722.956.956 0 0 0 .91.063 5.772 5.772 0 0 0 1.413-1.015l.58-.487c.133-.112.325-.261.58-.447.2-.153.416-.286.642-.396a5 5 0 0 1 .619-.25c.224-.076.459-.117.696-.121.239.007.477.044.706.112a3.073 3.073 0 0 1 2.215 2.47 4.269 4.269 0 0 1-.763 2.838M9.448 39.697l.465-1.837 9.295 2.364-.355 1.397-6.715 2.549 5.7 1.447-.47 1.836-9.313-2.366.355-1.397 6.692-2.553zm9.315-3.214a1.784 1.784 0 0 0 1.096-.921c.246-.434.302-.951.156-1.428a1.85 1.85 0 0 0-.953-1.112 1.835 1.835 0 0 0-2.55.753 1.78 1.78 0 0 0-.15 1.419 2.007 2.007 0 0 0 2.402 1.282v.007zm2.911-2.88a3.625 3.625 0 0 1-5.192 4.267 3.632 3.632 0 1 1 3.418-6.406 3.485 3.485 0 0 1 1.774 2.139zm6.285-5.866a4.283 4.283 0 0 1-2.177 1.207 3.427 3.427 0 0 1-2.192-.307l.513-1.806a2.16 2.16 0 0 0 2.616-.472c.316-.26.54-.617.636-1.016a.911.911 0 0 0-1.11-1.039 7.247 7.247 0 0 0-1.596.68c-.34.183-.693.344-1.054.481a4.78 4.78 0 0 1-1 .247c-.358.051-.722.01-1.058-.12a2.697 2.697 0 0 1-.966-.669 2.593 2.593 0 0 1-.772-2.143 3.369 3.369 0 0 1 1.076-2.11 3.715 3.715 0 0 1 1.896-1.004 3.827 3.827 0 0 1 2.094.187l-.51 1.766a1.934 1.934 0 0 0-2.186.384 1.434 1.434 0 0 0-.481.838.837.837 0 0 0 .238.733.874.874 0 0 0 .779.268 5.237 5.237 0 0 0 1.45-.563c.278-.142.485-.242.628-.312.145-.07.343-.154.62-.255.199-.086.403-.156.613-.21.194-.037.39-.06.589-.074.213-.016.428.004.634.06.207.06.406.148.59.261.223.128.426.29.602.477.59.568.875 1.383.769 2.195a3.872 3.872 0 0 1-1.241 2.316m3.253-11.14l1.512-.918 3.569 5.868-1.535.921-.402-.643a2.291 2.291 0 0 1-1.248 1.887 2.513 2.513 0 0 1-1.986.322 2.855 2.855 0 0 1-1.713-1.429l-2.191-3.6 1.517-.918 2.122 3.422c.175.346.487.605.859.715.358.075.732 0 1.034-.207.362-.196.625-.534.727-.933a1.794 1.794 0 0 0-.314-1.306l-1.951-3.18zm7.248 1.756a2.058 2.058 0 0 0 2.62-.865c.234-.45.268-.979.093-1.456a1.79 1.79 0 0 0-.932-1.097 1.887 1.887 0 0 0-1.477-.072 1.909 1.909 0 0 0-1.15.936 1.938 1.938 0 0 0 .846 2.554zm1.672-5.473l1.649-.544 2.044 6.213a2.929 2.929 0 0 1-.237 2.637 3.932 3.932 0 0 1-2.146 1.588 4.35 4.35 0 0 1-1.996.211 2.953 2.953 0 0 1-1.613-.783l1.166-1.29a2.186 2.186 0 0 0 3.128-.485c.214-.415.238-.903.067-1.338l-.236-.703a2.568 2.568 0 0 1-1.76 1.678 3.225 3.225 0 0 1-2.635-.209 3.632 3.632 0 0 1-1.567-4.735 3.257 3.257 0 0 1 2.013-1.737 2.585 2.585 0 0 1 2.388.31l-.265-.813zm6.612 3.583a1.985 1.985 0 0 0 2.722-.223 1.938 1.938 0 0 0-1.634-3.211 1.84 1.84 0 0 0-1.314.655 1.873 1.873 0 0 0-.418 1.433c.02.517.254 1.005.644 1.346zm2.87-5.08l1.76-.143.555 6.85-1.76.143-.063-.809a2.715 2.715 0 0 1-2.156 1.181 3.121 3.121 0 0 1-2.43-.858 3.615 3.615 0 0 1-1.188-2.505 3.684 3.684 0 0 1 .773-2.65 3.112 3.112 0 0 1 2.262-1.235 2.689 2.689 0 0 1 2.315.819l-.067-.793zm5.851 1.413c.188-.399.515-.717.918-.897.405-.18.852-.249 1.293-.2l-.202 1.971a2.09 2.09 0 0 0-1.475.177 1.575 1.575 0 0 0-.791 1.34l-.338 3.27-1.76-.186.706-6.836 1.765.187-.116 1.174zm8.847 4.279l2.504 1.039.22-4.163-2.724 3.124zm2.311 4.749l.093-1.838-3.652-1.505-1.19 1.38-1.897-.751 6.781-7.611 2.174.894-.536 10.187-1.773-.756zm4.579.406a1.99 1.99 0 0 0 2.199 1.612 2.09 2.09 0 0 0 1.649-2.252 1.828 1.828 0 0 0-.783-1.242 1.972 1.972 0 0 0-3.065 1.883zm7.102-4.19l1.432 1.044-5.68 7.785-1.432-1.043.479-.654c-.83.228-1.718.04-2.385-.505a3.12 3.12 0 0 1-1.294-2.25 3.865 3.865 0 0 1 3.037-4.15 3.145 3.145 0 0 1 2.536.547 2.65 2.65 0 0 1 1.203 2.124l2.104-2.897zm-.614 9.728a2.002 2.002 0 0 0 1.766 2.081 1.938 1.938 0 0 0 1.41-.495 1.9 1.9 0 0 0 .717-1.31 1.99 1.99 0 0 0-1.767-2.08 2.065 2.065 0 0 0-2.127 1.804zm7.908-2.412l1.15 1.34-7.329 6.233-1.148-1.34.621-.52a2.661 2.661 0 0 1-2.208-1.05 3.128 3.128 0 0 1-.728-2.49 3.865 3.865 0 0 1 3.925-3.334 3.135 3.135 0 0 1 2.335 1.13c.593.625.846 1.501.676 2.347l2.706-2.316zm-1.292 7.971l1.604 3.114c.342-.255.575-.633.647-1.055a1.839 1.839 0 0 0-.188-1.12 1.866 1.866 0 0 0-.868-.883 1.72 1.72 0 0 0-1.195-.056zm-1.208.648c-.656.607-.743 1.378-.263 2.315.238.547.73.942 1.316 1.054l-.076 1.65a3.432 3.432 0 0 1-2.679-1.988 3.698 3.698 0 0 1-.338-2.908 3.509 3.509 0 0 1 1.838-2.1 3.556 3.556 0 0 1 2.766-.286 3.48 3.48 0 0 1 2.117 1.847 3.25 3.25 0 0 1 .215 2.697 3.634 3.634 0 0 1-1.843 2.024 3.893 3.893 0 0 1-.68.274l-2.373-4.58zm2.669 7.897c-.26.44-.327.968-.185 1.46.107.497.42.927.861 1.183.943.5 2.113.202 2.703-.689a1.985 1.985 0 0 0-.67-2.637A1.877 1.877 0 0 0 86.987 41a1.927 1.927 0 0 0-1.22.866v.006zm8.15 1.291l.434 1.72-9.32 2.367-.434-1.719.784-.2a2.662 2.662 0 0 1-1.52-1.914 3.1 3.1 0 0 1 .438-2.553 3.872 3.872 0 0 1 4.99-1.265 3.112 3.112 0 0 1 1.604 2.037c.257.823.097 1.72-.427 2.405l3.451-.878z" fill="#FFF"/></g></svg>