<svg width="97" height="98" viewBox="0 0 97 98" xmlns="http://www.w3.org/2000/svg"><title>buy-here</title><g fill="none"><path d="M53.732 84.254a41.593 41.593 0 0 1-11.564 1.634c-11.273 0-21.87-4.463-29.838-12.567C4.38 65.231 0 54.48 0 43.05s4.38-22.18 12.33-30.27c4.863-4.945 10.903-8.636 17.466-10.675l.111-.037c.306-.1.61-.2.92-.293.107-.03.191-.05.276-.072l.12-.03A42.04 42.04 0 0 1 42.873 0C66.03 0 84.868 18.84 84.868 41.995c0 5.44-1.044 10.76-3.104 15.817l-.084.23-.026.066a4.43 4.43 0 0 0-.049.122 5.677 5.677 0 0 1-.072.181c-.162.427-.344.901-.543 1.384a20.351 20.351 0 0 1 1.278 7.138c0 10.951-8.594 19.86-19.158 19.86-3.298 0-6.523-.876-9.378-2.539z" fill="#FFF"/><path d="M54.213 80.62l.652.416a15.283 15.283 0 0 0 8.245 2.42c8.724 0 15.821-7.413 15.821-16.523 0-2.266-.433-4.46-1.285-6.526l-.272-.657.286-.65c.28-.638.531-1.288.763-1.9l.022-.056c.018-.042.034-.083.05-.125l.067-.169.07-.19.028-.074a38.415 38.415 0 0 0 2.87-14.59c0-21.317-17.34-38.659-38.656-38.659-3.579 0-7.192.52-10.74 1.545l-.025.007-.206.053c-.048.012-.097.023-.146.037-.255.077-.53.168-.807.258l-.15.05c-6.045 1.875-11.609 5.275-16.09 9.832C7.375 22.58 3.337 32.5 3.337 43.05S7.376 63.52 14.71 70.982c7.335 7.46 17.087 11.57 27.458 11.57 3.845 0 7.65-.574 11.306-1.704l.74-.229zm-.48 3.634a41.593 41.593 0 0 1-11.565 1.634c-11.273 0-21.87-4.463-29.838-12.567C4.38 65.231 0 54.48 0 43.05s4.38-22.18 12.33-30.27c4.863-4.945 10.903-8.636 17.466-10.675l.111-.037c.306-.1.61-.2.92-.293.107-.03.191-.05.276-.072l.12-.03A42.04 42.04 0 0 1 42.873 0C66.03 0 84.868 18.84 84.868 41.995c0 5.44-1.044 10.76-3.104 15.817l-.084.23-.026.066a4.43 4.43 0 0 0-.049.122 5.677 5.677 0 0 1-.072.181c-.162.427-.344.901-.543 1.384a20.351 20.351 0 0 1 1.278 7.138c0 10.951-8.594 19.86-19.158 19.86-3.298 0-6.523-.876-9.378-2.539z" fill="#008BBF"/><path d="M87.768 97.695c-4.742 0-8.6-3.86-8.6-8.604 0-4.742 3.858-8.6 8.6-8.6 4.742 0 8.601 3.858 8.601 8.6 0 4.744-3.859 8.604-8.6 8.604" fill="#FFF"/><path d="M87.768 83.828a5.269 5.269 0 0 0-5.263 5.263 5.27 5.27 0 0 0 5.263 5.266 5.27 5.27 0 0 0 5.263-5.266 5.269 5.269 0 0 0-5.263-5.263m0 13.867c-4.742 0-8.6-3.86-8.6-8.604 0-4.742 3.858-8.6 8.6-8.6 4.742 0 8.601 3.858 8.601 8.6 0 4.744-3.859 8.604-8.6 8.604M30.963 32.572c0-1.296-.937-2.26-2.233-2.26h-4.384v4.55h4.384c1.296 0 2.233-.967 2.233-2.29zm-6.617-9.898v4.246h3.804c1.186 0 2.068-.91 2.068-2.123 0-1.214-.855-2.123-2.068-2.123h-3.804zM34.74 32.82c0 3.31-2.674 5.597-6.01 5.597h-8.19v-19.3h7.61c3.254 0 5.874 2.205 5.874 5.431 0 1.655-.69 2.951-1.821 3.861 1.544.882 2.537 2.398 2.537 4.411zm15.275-8.189v13.786h-3.557v-1.544c-.827 1.241-2.26 1.93-4.108 1.93-2.923 0-5.21-2.04-5.21-5.707v-8.465h3.556v8.024c0 1.875 1.131 2.84 2.73 2.84 1.736 0 3.032-1.02 3.032-3.419v-7.445h3.557zm16.049 0l-5.019 13.786c-1.433 3.971-3.777 5.708-7.279 5.515v-3.309c1.958.028 2.95-.799 3.612-2.647l-5.652-13.345h3.888l3.584 9.264 3.06-9.264h3.806zM29.143 40.947v19.3h-3.777v-7.995h-7.169v7.996h-3.806V40.947h3.806v7.665h7.17v-7.665zm13.402 11.112c-.441-1.985-1.931-2.785-3.42-2.785-1.902 0-3.198 1.02-3.611 2.785h7.03zm-3.09 5.349c1.38 0 2.484-.58 3.09-1.38l2.867 1.656c-1.296 1.875-3.364 2.95-6.011 2.95-4.631 0-7.554-3.171-7.554-7.28 0-4.108 2.95-7.278 7.279-7.278 4.08 0 6.976 3.226 6.976 7.279 0 .524-.056.992-.138 1.46H35.568c.498 1.82 2.013 2.593 3.888 2.593zm16.877-11.223v3.97c-1.848-.22-4.191.608-4.191 3.502v6.59h-3.557V46.463h3.557v2.37c.716-1.874 2.454-2.647 4.19-2.647m11.527 5.873c-.44-1.985-1.93-2.785-3.419-2.785-1.903 0-3.199 1.02-3.612 2.785h7.031zm-3.089 5.349c1.38 0 2.483-.58 3.09-1.38l2.866 1.656c-1.296 1.875-3.364 2.95-6.01 2.95-4.632 0-7.555-3.171-7.555-7.28 0-4.108 2.95-7.278 7.28-7.278 4.08 0 6.975 3.226 6.975 7.279 0 .524-.056.992-.138 1.46H60.881c.498 1.82 2.013 2.593 3.888 2.593z" fill="#008BBF"/></g></svg>