<svg width="73" height="54" viewBox="0 0 73 54" xmlns="http://www.w3.org/2000/svg"><title>Non GMO Project Verified</title><g fill="none" fill-rule="evenodd"><path fill="#FFF" d="M0 53.367h72.867V0H0z"/><path fill="#91BFE9" d="M1.563 32.747h34.811V1.563H1.563z"/><path d="M25.028 7.992c-.304-1.622-4.112-1.766-6.75 4.42-1.407-3.143-3.521-6.397-6.48-8.162-1.671-1-5.42.163-1.521 9.021 0 0-1.803 3.119.252 5.082 3.008 2.877 5.754 1.695 9.159 2.12-.64 1.015.83 2.498.975.826.023-.26-.024-.637-.092-1.018.85-1.104 5.392-7.29 4.457-12.29" fill="#231F20"/><path fill="#001A71" d="M36.373 32.747h34.931V1.563H36.373z"/><path d="M21.297 32.747c1.858-10.917 7.38-20.872 14.134-29.635-3.406 1.573-7.744 6.243-11.537 11.558-1.184 2.74-2.843 4.987-3.324 5.61.07.381.116.76.092 1.02-.1 1.177-.86.788-1.077.102-1.375 2.416-2.52 4.76-3.309 6.817-1.875-4.89-6.285-8.915-12.052-11.105 4.64 5.62 7.501 10.251 8.694 15.633H1.563v11.038h69.745V32.747h-50.01z" fill="#498A2B"/><path d="M23.455 10.352c-.14-1.661-2.978-1.548-4.694 3.03 0 0-.017.022-.04.065.955 2.36 1.51 4.553 1.725 5.872.627-.984 3.312-5.428 3.01-8.967m-3.771 9.596c.724.315-1.824-8.944-6.788-11.96-1.258-.767-3.414-.11-.732 5.926 0 0-2.004 3.232 1.076 4.667 1.926.9 4.432.491 6.444 1.367" fill="#F18A00"/><path fill="#FFF" d="M8.713 40.606h-.019l-1.946-5.39H5.71l2.555 6.627h.843l2.61-6.627h-.983z"/><path stroke="#FFF" stroke-width=".25" d="M8.713 40.606h-.019l-1.946-5.39H5.71l2.555 6.627h.842l2.611-6.627h-.983z"/><path fill="#FFF" d="M16.565 38.876h3.144v-.843h-3.144V36.06h3.377v-.842h-4.276v6.625h4.445V41h-3.546z"/><path stroke="#FFF" stroke-width=".25" d="M16.565 38.876h3.144v-.843h-3.144V36.06h3.377v-.842h-4.276v6.625h4.445V41h-3.546z"/><path d="M25.435 38.136v-2.134h1.18c.71 0 1.422.169 1.422 1.068 0 .898-.712 1.066-1.422 1.066h-1.18zm3.556-1.066c0-.834-.431-1.853-2.124-1.853h-2.33v6.625h.898v-2.92h1.002l1.685 2.92h1.122l-1.881-3.023c1.002-.112 1.628-.908 1.628-1.749z" fill="#FFF"/><path d="M25.435 38.136v-2.134h1.18c.71 0 1.422.169 1.422 1.068 0 .898-.712 1.066-1.422 1.066h-1.18zm3.556-1.066c0-.834-.431-1.853-2.124-1.853h-2.33v6.625h.898v-2.92h1.002l1.685 2.92h1.122l-1.881-3.023c1.002-.112 1.628-.908 1.628-1.749z" stroke="#FFF" stroke-width=".25"/><path fill="#FFF" d="M33.407 41.842h.897v-6.625h-.897z"/><path stroke="#FFF" stroke-width=".25" d="M33.407 41.842h.897v-6.625h-.897z"/><path fill="#FFF" d="M39.153 41.842h.898v-2.864h3.04v-.842h-3.04V36.06h3.266v-.842h-4.164z"/><path stroke="#FFF" stroke-width=".25" d="M39.153 41.842h.898v-2.864h3.04v-.842h-3.04V36.06h3.266v-.842h-4.164z"/><path fill="#FFF" d="M47.658 41.842h.897v-6.625h-.897z"/><path stroke="#FFF" stroke-width=".25" d="M47.658 41.842h.897v-6.625h-.897z"/><path fill="#FFF" d="M54.292 38.876h3.145v-.843h-3.145V36.06h3.38v-.842h-4.277v6.625h4.444V41h-3.547z"/><path stroke="#FFF" stroke-width=".25" d="M54.292 38.876h3.145v-.843h-3.145V36.06h3.38v-.842h-4.277v6.625h4.444V41h-3.547z"/><path d="M64.127 41h-1.133v-4.941h1.35c2.151 0 2.591 1.628 2.591 2.47 0 1.638-1.29 2.47-2.808 2.47m.28-5.782h-2.31v6.625h2.161c2.368 0 3.632-1.62 3.632-3.313 0-1.226-.684-3.312-3.483-3.312" fill="#FFF"/><path d="M64.127 41h-1.133v-4.941h1.35c2.151 0 2.591 1.628 2.591 2.47 0 1.638-1.29 2.47-2.808 2.47zm.28-5.783h-2.31v6.625h2.161c2.368 0 3.632-1.62 3.632-3.313 0-1.226-.684-3.312-3.483-3.312z" stroke="#FFF" stroke-width=".25"/><path d="M1.607 46.62h.66v.535h.015c.169-.366.609-.623 1.144-.623.675 0 1.262.403 1.262 1.328v2.237h-.66v-2.054c0-.653-.374-.895-.792-.895-.551 0-.97.352-.97 1.16v1.79h-.66V46.62zm6.138 2.95c.705 0 1.145-.507 1.145-1.21 0-.705-.44-1.212-1.145-1.212-.703 0-1.145.507-1.145 1.211 0 .704.442 1.21 1.145 1.21m0-3.037c1.035 0 1.85.814 1.85 1.827a1.827 1.827 0 0 1-1.85 1.826 1.826 1.826 0 1 1 0-3.653m3.059.088h.66v.535h.015c.168-.366.608-.623 1.143-.623.676 0 1.263.403 1.263 1.328v2.237h-.66v-2.054c0-.653-.375-.895-.793-.895-.55 0-.968.352-.968 1.16v1.79h-.66V46.62zm5.096 1.739c0 .704.44 1.167 1.146 1.167.704 0 1.144-.463 1.144-1.167s-.44-1.211-1.144-1.211c-.705 0-1.145.507-1.145 1.21zm2.95 1.709c0 1.05-.762 1.79-1.9 1.79-.66 0-1.21-.168-1.701-.624l.447-.557c.345.367.733.565 1.24.565.983 0 1.254-.616 1.254-1.203v-.513h-.021c-.25.417-.727.616-1.205.616-1.02 0-1.774-.771-1.766-1.783 0-1.027.689-1.827 1.766-1.827.47 0 .955.213 1.21.587h.016v-.498h.66v3.447zm1.517-3.448h.616v.543h.015c.065-.205.492-.63 1.115-.63.514 0 .865.22 1.086.645a1.257 1.257 0 0 1 1.101-.646c1.071 0 1.32.763 1.32 1.54v2.025h-.66v-1.936c0-.529-.11-1.013-.749-1.013s-.888.433-.888 1.05v1.9h-.66v-1.82c0-.66-.095-1.13-.734-1.13-.476 0-.902.36-.902 1.144v1.805h-.66V46.62zm8.31 2.95c.705 0 1.145-.507 1.145-1.21 0-.705-.44-1.212-1.145-1.212-.703 0-1.145.507-1.145 1.211 0 .704.442 1.21 1.145 1.21m0-3.037c1.035 0 1.85.814 1.85 1.827a1.827 1.827 0 0 1-1.85 1.826 1.826 1.826 0 1 1 0-3.653m3.851 1.827c0 .704.44 1.21 1.145 1.21.704 0 1.143-.506 1.143-1.21s-.44-1.211-1.143-1.211c-.705 0-1.145.507-1.145 1.21zm-.66-1.738h.66v.498h.015c.256-.374.74-.587 1.21-.587 1.079 0 1.768.8 1.768 1.827 0 1.042-.697 1.826-1.767 1.826-.5 0-.977-.226-1.211-.586h-.015v2.567h-.66V46.62zm4.855-.001h.66v.535h.015c.168-.366.608-.623 1.042-.623.102 0 .204.015.293.044l-.03.711a1.29 1.29 0 0 0-.323-.05c-.645 0-.997.351-.997 1.114v1.746h-.66V46.62zm4.466 2.95c.705 0 1.145-.507 1.145-1.21 0-.705-.44-1.212-1.145-1.212-.703 0-1.144.507-1.144 1.211 0 .704.44 1.21 1.144 1.21m0-3.037c1.035 0 1.85.814 1.85 1.827a1.827 1.827 0 0 1-1.85 1.826 1.826 1.826 0 1 1 0-3.653m3.441-1.642c.263 0 .482.22.482.483a.487.487 0 0 1-.483.484.488.488 0 0 1-.484-.484c0-.264.22-.484.484-.484zm.328 1.73v3.977c0 .36-.007 1.261-1.063 1.261a1.2 1.2 0 0 1-.425-.066l.073-.609c.08.03.184.06.272.06.36 0 .484-.236.484-.676V46.62h.66zm4.116 1.453c-.014-.58-.337-1.012-1.005-1.012-.653 0-1.079.55-1.079 1.012h2.084zm-2.084.528c0 .609.564 1.013 1.173 1.013.405 0 .699-.206.955-.521l.498.38c-.367.478-.873.713-1.54.713-1.1 0-1.79-.792-1.79-1.827 0-1.041.755-1.827 1.797-1.827 1.224 0 1.695.94 1.695 1.834v.235H46.99zm6.301-1.056c-.243-.256-.5-.39-.866-.39-.719 0-1.086.58-1.086 1.234 0 .653.44 1.18 1.123 1.18.366 0 .623-.131.844-.388l.468.47c-.344.38-.813.535-1.32.535-1.07 0-1.819-.741-1.819-1.812 0-1.071.733-1.834 1.82-1.834.506 0 .99.176 1.335.55l-.499.455zm3.292-.352h-.945v1.577c0 .389 0 .799.498.799.154 0 .338-.022.47-.102v.602c-.155.087-.462.117-.595.117-1.02 0-1.034-.623-1.034-1.181v-1.812h-.763v-.572h.763v-.976h.661v.976h.945v.572zm1.254 2.464c0-.263.22-.483.484-.483a.49.49 0 0 1 .485.483.49.49 0 0 1-.485.485.488.488 0 0 1-.484-.485m4.027-.087c.705 0 1.146-.507 1.146-1.21 0-.705-.441-1.212-1.145-1.212-.706 0-1.146.507-1.146 1.211 0 .704.44 1.21 1.145 1.21m0-3.037a1.827 1.827 0 1 1 0 3.653 1.827 1.827 0 0 1-1.85-1.826c0-1.013.816-1.827 1.85-1.827m3.058.088h.66v.535h.015c.168-.366.61-.623 1.042-.623.102 0 .205.015.294.044l-.03.711a1.29 1.29 0 0 0-.324-.05c-.644 0-.997.351-.997 1.114v1.746h-.66V46.62zm3.462 1.739c0 .704.44 1.167 1.145 1.167.704 0 1.143-.463 1.143-1.167s-.439-1.211-1.143-1.211c-.705 0-1.145.507-1.145 1.21zm2.949 1.709c0 1.05-.763 1.79-1.9 1.79-.66 0-1.21-.168-1.702-.624l.447-.557c.345.367.734.565 1.24.565.983 0 1.254-.616 1.254-1.203v-.513h-.021c-.25.417-.726.616-1.204.616-1.019 0-1.775-.771-1.767-1.783 0-1.027.689-1.827 1.767-1.827.47 0 .954.213 1.211.587h.014v-.498h.661v3.447z" fill="#498A2B"/><path fill="#FFF" d="M42.353 6.845h.02l3.519 5.736h2.32V4.523h-1.774v5.6h-.023l-3.425-5.6h-2.413v8.058h1.776zm11.789-.888c1.514 0 2.504 1.093 2.504 2.595 0 1.502-.99 2.594-2.504 2.594s-2.503-1.092-2.503-2.594c0-1.502.989-2.595 2.503-2.595m0 6.828c2.516 0 4.348-1.65 4.348-4.233 0-2.584-1.832-4.234-4.348-4.234-2.515 0-4.347 1.65-4.347 4.234 0 2.583 1.832 4.233 4.347 4.233m7.705-5.94h.023l3.516 5.736h2.322V4.523h-1.776v5.6h-.023l-3.424-5.6h-2.413v8.058h1.775zm-19.725 19.61H40.98v-2.047h1.143c.69 0 1.378.16 1.378 1.023 0 .862-.689 1.024-1.378 1.024m.245-2.802H40.11v6.358h.87V27.21h1.388c1.642 0 2.06-.98 2.06-1.78 0-.798-.418-1.777-2.06-1.777m3.708 2.757h-.019v-.656h-.816v4.257h.816v-2.137c0-.934.436-1.365 1.234-1.365.127 0 .263.027.4.062l.034-.87a1.169 1.169 0 0 0-.362-.054c-.535 0-1.079.314-1.287.763m4.244 2.954c-.87 0-1.415-.619-1.415-1.48 0-.863.545-1.483 1.415-1.483s1.415.62 1.415 1.482-.544 1.481-1.415 1.481m0-3.718c-1.28 0-2.285.998-2.285 2.237 0 1.24 1.006 2.236 2.285 2.236 1.279 0 2.285-.997 2.285-2.236 0-1.239-1.006-2.237-2.285-2.237m3.745-2.011a.6.6 0 0 0-.6.593.6.6 0 0 0 .6.592.601.601 0 0 0 .599-.592.601.601 0 0 0-.6-.593m-.407 6.95c0 .54-.154.826-.6.826-.108 0-.235-.035-.336-.07l-.09.745c.172.063.346.08.526.08 1.308 0 1.316-1.104 1.316-1.544v-4.867h-.816v4.83zm2.82-3.053c0-.566.525-1.239 1.333-1.239.825 0 1.224.53 1.242 1.24h-2.575zm1.35-1.885c-1.287 0-2.221.96-2.221 2.236 0 1.266.852 2.235 2.213 2.235.825 0 1.45-.287 1.904-.87l-.617-.467c-.316.385-.68.637-1.18.637-.751 0-1.45-.494-1.45-1.239h3.447v-.288c0-1.095-.581-2.244-2.095-2.244zm5.07.763c.453 0 .77.161 1.07.476l.617-.557c-.427-.458-1.025-.673-1.651-.673-1.342 0-2.25.933-2.25 2.245 0 1.311.926 2.218 2.25 2.218.626 0 1.206-.188 1.633-.656l-.581-.575a1.28 1.28 0 0 1-1.043.476c-.843 0-1.387-.646-1.387-1.445s.453-1.509 1.342-1.509m4.098 1.976v-1.931h1.17v-.7h-1.17V24.56h-.816v1.194h-.944v.7h.944v2.218c0 .683.018 1.446 1.28 1.446.161 0 .543-.037.733-.143v-.738c-.164.1-.389.127-.58.127-.617 0-.617-.503-.617-.98m-22.896-5.829c1.183 0 2.332-.227 3.379-.773V17.57h-3.151v1.64h1.445v1.308c-.33.183-.9.398-1.673.398-1.514 0-2.504-1.091-2.504-2.595 0-1.502.99-2.594 2.504-2.594.898 0 1.479.262 1.957.762l1.25-1.365c-.807-.75-1.933-1.036-3.207-1.036-2.516 0-4.348 1.65-4.348 4.234s1.832 4.233 4.348 4.233m12.768-6.385v6.18h1.775v-8.056h-2.674l-1.867 5.257h-.022l-1.856-5.257H49.54v8.057h1.774v-6.18h.024l2.036 6.18h1.354l2.118-6.18zm7.478-.443c1.513 0 2.503 1.092 2.503 2.595 0 1.502-.99 2.594-2.503 2.594-1.514 0-2.504-1.092-2.504-2.594 0-1.503.99-2.595 2.504-2.595m0 6.828c2.515 0 4.347-1.65 4.347-4.233 0-2.583-1.832-4.234-4.347-4.234-2.516 0-4.349 1.651-4.349 4.234s1.833 4.233 4.349 4.233"/></g></svg>