<svg width="186" height="44" viewBox="0 0 186 44" xmlns="http://www.w3.org/2000/svg"><title>explore-flavors</title><g fill="#008BBF" fill-rule="evenodd"><path d="M92.532 3.78c-.078 1.084-1.085.848-.47 1.842.864 1.386 2.728.846 3.547.031-.31 1.258-.66 2.674 1.066 1.952-1.027 1.595.853 4.17 1.333 5.781 2.16-2.062.955-6.326-.491-8.313-1.63-2.234-3.882-3.565-6.552-4.042a.744.744 0 0 0-.15-.03c-1.123 0-2.696-.026-3.674.621-1.623 1.074-1.315.321-.577 1.605 1.289 2.24 4.372 1.741 5.968.552m17.036 26.098c.016 0-.123-.09 0 0"/><path d="M110.82 19.593c-2.611-3.874-7.343-7.595-12.29-5.694 3.446.933 3.674 2.61 4.982 3.335.849.467.835-.187 1.849.102.436 1.345-1.995 1.658.22 2.963.875.515 2.195-.043 2.336.852.182 1.175-2.171 2.168-.16 3.381.18.108 2.35.313 2.3.405-.39.716-.772.72-1.737.857.924 1.175 1.303 2.633 1.248 4.082.142.102 2.219-2.155 2.582-3.209.802-2.345.004-5.095-1.33-7.074M86.796 9.345c.236 2.022 1.617.054 1.913-.606-.04 1.044.809 2.925 2.333 2.422.909-.3.229.068.76-1.44.773 2.844 5.175 3.474 5.175 3.474s-.5-2.83-3.018-4.582c-4.29-2.983-9.962-1.325-11.792 3.396 1.733-.75 3.74-.986 4.629-2.664m5.006.377c.01.076.107.396 0 0"/><path d="M102.744 28.51a8.773 8.773 0 0 1-.163 1.422c-.043.245-.105.489-.167.735a13.042 13.042 0 0 1-.806 2.187 15.95 15.95 0 0 1-.726 1.371c-.064.111-.131.22-.197.328l-.204.319a17.258 17.258 0 0 1-1.276 1.713c-.288.338-.572.646-.846.922-.547.549-1.048.962-1.422 1.218a4 4 0 0 1-.45.274 2.849 2.849 0 0 1-.168.08s.047-.044.133-.13c.08-.085.194-.218.335-.386.14-.172.304-.384.487-.63.182-.245.384-.526.596-.836a40.08 40.08 0 0 0 1.378-2.15c.115-.202.236-.405.355-.614.028-.047.055-.099.082-.148l-.09.015c-.14.014-.285.028-.436.041-.152.005-.306.014-.463.016-.155-.005-.312 0-.471-.011-.158-.01-.312-.015-.465-.03l-.228-.022a16.473 16.473 0 0 0-.22-.026c-.144-.015-.285-.038-.415-.057-.133-.02-.255-.042-.37-.06-.453-.084-.752-.163-.752-.163s.307.016.766.007c.115-.005.238-.009.37-.017.129-.008.267-.013.407-.026l.217-.018c.07-.01.147-.018.219-.026.147-.014.297-.04.444-.062.15-.02.294-.053.437-.08.142-.03.28-.067.415-.1.129-.04.254-.079.373-.114l.319-.125.234-.116c.063-.027.14-.08.195-.112l.138-.084c.105-.209.208-.416.304-.627.163-.343.315-.69.45-1.036-.084.014-.174.03-.267.044-.14.015-.285.028-.437.043-.151.005-.305.014-.462.014-.155-.003-.312 0-.47-.01-.156-.009-.314-.015-.467-.03a8.24 8.24 0 0 0-.226-.021 25.518 25.518 0 0 0-.22-.026 11.984 11.984 0 0 1-.416-.058c-.131-.02-.253-.043-.37-.06-.454-.085-.751-.163-.751-.163s.307.017.765.005c.115-.003.237-.006.369-.014.13-.008.27-.012.408-.027l.217-.018c.072-.01.147-.016.219-.025.147-.017.297-.04.444-.063.148-.02.293-.053.438-.08.142-.03.28-.067.414-.098.127-.041.254-.08.373-.117l.32-.125c.084-.043.163-.08.234-.116.06-.026.14-.08.194-.113a1.63 1.63 0 0 0 .1-.06 12.497 12.497 0 0 0 .452-1.802l.02-.142-.152.037-.396.067-.435.042c-.152.005-.307.012-.463.014-.155-.005-.314 0-.471-.01-.156-.009-.312-.016-.467-.03l-.225-.021c-.075-.01-.15-.018-.222-.026-.144-.017-.282-.04-.414-.058-.131-.02-.256-.043-.37-.061-.454-.084-.753-.162-.753-.162s.31.015.767.005c.113-.005.237-.006.368-.014.13-.009.268-.014.409-.027l.218-.018c.072-.01.144-.016.218-.025.146-.015.296-.04.443-.063.15-.018.295-.055.438-.08.143-.032.28-.067.414-.1l.374-.116.32-.123.233-.117c.063-.026.143-.08.195-.111.026-.015.049-.03.069-.043a7.28 7.28 0 0 0-.273-2.259c-.031-.116-.05-.177-.05-.177s.039.052.108.15a5.697 5.697 0 0 1 .195.309c.027.044.05.091.077.142.11.2.223.454.328.76.1.303.19.659.249 1.052.055.395.083.828.068 1.284M91.432 23.89l.59-.608c.163-.169.327-.337.49-.512.37-.383.73-.779 1.098-1.17a15.934 15.934 0 0 1 .522-.535c.208-.203.417-.4.63-.596l.227-.215c.01-.01.022-.02.03-.032.076-.07.148-.14.22-.213l.03-.032c.075-.073.145-.146.213-.223l.017-.017c.07-.077.135-.156.2-.236 1.792.341 2.928.9 2.928 1.72 0 1.37-3.136 2.5-7.244 2.718.017-.017.033-.032.049-.05m-.272-3.6l-.001.002-.246.41a8.029 8.029 0 0 0-.081.136c-.09.154-.184.308-.272.462-.271.456-.526.913-.776 1.35l-.231.421a120.254 120.254 0 0 0-.494.893c-4.363-.143-7.77-1.316-7.77-2.742 0-1.521 3.884-2.146 8.669-2.146.644 0 1.27.012 1.875.035a12.86 12.86 0 0 1-.226.42c-.074.131-.15.261-.227.392a44.68 44.68 0 0 0-.22.367m5.485-2.268a10.437 10.437 0 0 0 .857-2.219c.089-.338.15-.65.19-.912.085-.523.08-.86.08-.86l-.278-.208s-.326.088-.805.313a10.048 10.048 0 0 0-1.782 1.084c-.332.25-.674.536-1.012.857-.34.32-.673.674-.965 1.081-.131.18-.251.375-.366.573-.847-.02-1.715-.027-2.606-.027-8.12 0-14.703.354-14.703 9.43 0 9.08 6.584 16.44 14.703 16.44 8.12 0 14.704-7.36 14.704-16.44 0-6.383-3.261-8.445-8.017-9.111M8.635 32.484v2.633H0v-13.96h8.535v2.632H2.752v2.971h5.285v2.593H2.752v3.131zm8.035 2.633l-2.154-3.031-2.174 3.03H9.37l3.65-5.084-3.491-4.887h2.972l2.014 2.812 2.014-2.812h2.952l-3.49 4.867 3.65 5.105zm12.342-4.987c0-1.674-1.176-2.811-2.772-2.811-1.576 0-2.752 1.137-2.752 2.812 0 1.675 1.176 2.812 2.752 2.812 1.596 0 2.772-1.137 2.772-2.812m2.573 0c0 2.972-2.194 5.265-4.866 5.265-1.456 0-2.513-.538-3.231-1.456v5.166h-2.573V25.145h2.573v1.177c.718-.918 1.775-1.456 3.23-1.456 2.673 0 4.867 2.294 4.867 5.265m1.811 4.986h2.573V20.56h-2.573zM45.78 30.13c0-1.614-1.177-2.751-2.713-2.751-1.516 0-2.692 1.137-2.692 2.752 0 1.615 1.176 2.752 2.692 2.752 1.536 0 2.712-1.137 2.712-2.752m-7.977 0c0-2.971 2.333-5.265 5.265-5.265 2.932 0 5.285 2.294 5.285 5.265 0 2.972-2.353 5.265-5.285 5.265s-5.265-2.293-5.265-5.265m17.966-5.185v2.872c-1.336-.16-3.03.439-3.03 2.533v4.766h-2.574v-9.972h2.573v1.716c.518-1.356 1.775-1.915 3.031-1.915m8.334 4.248c-.319-1.436-1.396-2.014-2.473-2.014-1.376 0-2.313.738-2.612 2.014h5.085zm-2.233 3.869c.997 0 1.795-.42 2.233-.997l2.074 1.196c-.937 1.357-2.433 2.134-4.347 2.134-3.35 0-5.465-2.293-5.465-5.265 0-2.971 2.134-5.265 5.265-5.265 2.952 0 5.046 2.334 5.046 5.265 0 .379-.04.718-.1 1.057h-7.518c.358 1.317 1.455 1.875 2.812 1.875zm62.381-9.273v3.31h5.424v2.632h-5.424v5.385h-2.752v-13.96h8.336v2.632zm7.476 11.327h2.572V20.56h-2.572zm12.503-4.987c0-1.674-1.177-2.811-2.771-2.811-1.577 0-2.753 1.137-2.753 2.812 0 1.675 1.176 2.812 2.753 2.812 1.594 0 2.771-1.137 2.771-2.812zm2.573-4.985v9.972h-2.573V33.94c-.718.898-1.795 1.456-3.251 1.456-2.652 0-4.846-2.293-4.846-5.265 0-2.971 2.194-5.265 4.846-5.265 1.456 0 2.533.558 3.251 1.456v-1.177h2.573zm11.724 0l-3.79 9.972h-2.932l-3.79-9.972h2.833l2.413 6.98 2.434-6.98zm8.294 4.985c0-1.614-1.177-2.751-2.713-2.751-1.516 0-2.692 1.137-2.692 2.752 0 1.615 1.176 2.752 2.692 2.752 1.536 0 2.713-1.137 2.713-2.752m-7.978 0c0-2.971 2.333-5.265 5.265-5.265 2.932 0 5.285 2.294 5.285 5.265 0 2.972-2.353 5.265-5.285 5.265s-5.265-2.293-5.265-5.265m17.965-5.185v2.872c-1.336-.16-3.03.439-3.03 2.533v4.766h-2.574v-9.972h2.573v1.716c.518-1.356 1.775-1.915 3.031-1.915m8.693 7.259c0 2.154-1.875 3.191-4.008 3.191-1.994 0-3.47-.838-4.188-2.373l2.233-1.257c.28.818.957 1.296 1.954 1.296.819 0 1.376-.279 1.376-.857 0-1.456-5.144-.658-5.144-4.168 0-2.034 1.734-3.17 3.79-3.17 1.614 0 3.01.737 3.788 2.113l-2.194 1.196c-.298-.638-.857-1.017-1.595-1.017-.638 0-1.157.28-1.157.818 0 1.476 5.145.558 5.145 4.228"/></g></svg>