<svg width="85" height="71" viewBox="0 0 85 71" xmlns="http://www.w3.org/2000/svg"><title>logo</title><g fill="#FFF"><path d="M4.036 67.005c.844 0 1.565-.29 2.147-.875a2.983 2.983 0 0 0 .876-2.163c0-.842-.293-1.564-.876-2.147-.582-.598-1.303-.889-2.147-.889-.844 0-1.565.291-2.147.89-.584.582-.876 1.304-.876 2.146 0 .846.292 1.566.876 2.163.582.584 1.303.875 2.147.875m2.869-5.889c.782.781 1.165 1.733 1.165 2.851 0 1.122-.383 2.072-1.165 2.854-.768.783-1.702 1.166-2.792 1.166-1.366 0-2.393-.567-3.1-1.688v4.573H0V60.134h1.013v1.503c.707-1.12 1.734-1.688 3.1-1.688 1.09 0 2.024.384 2.792 1.167m6.425 5.889c.845 0 1.565-.29 2.15-.875.582-.597.871-1.317.871-2.163 0-.842-.289-1.564-.87-2.147-.586-.598-1.306-.889-2.15-.889-.843 0-1.565.291-2.147.89-.582.582-.874 1.304-.874 2.146 0 .846.292 1.566.874 2.163.582.584 1.304.875 2.146.875zm3.021-6.87h1.013v7.668h-1.013V66.3c-.704 1.121-1.73 1.688-3.098 1.688-1.089 0-2.024-.383-2.805-1.166-.768-.782-1.152-1.732-1.152-2.854 0-1.118.384-2.07 1.152-2.85.781-.784 1.716-1.168 2.805-1.168 1.367 0 2.394.568 3.098 1.688v-1.503zm3.163 7.669h1.011V56.605h-1.011zm14.205-4.786v4.786h-1.013v-4.786c0-1.335-.752-2.086-1.873-2.086-1.272 0-2.13.828-2.13 2.623v4.249H27.69v-4.786c0-1.35-.691-2.086-1.795-2.086-1.228 0-2.208.844-2.208 2.623v4.249h-1.014v-7.67h1.014v1.12c.553-.875 1.332-1.304 2.345-1.304 1.105 0 1.888.46 2.332 1.395.55-.935 1.382-1.395 2.484-1.395 1.72 0 2.87 1.18 2.87 3.068m5.491 3.112c.615 0 1.122-.198 1.521-.597.396-.414.597-.935.597-1.565 0-.63-.201-1.15-.597-1.548-.399-.414-.906-.614-1.521-.614-.611 0-1.119.2-1.533.614-.399.398-.597.919-.597 1.548 0 .63.198 1.15.597 1.565.414.399.922.598 1.533.598zm2.118-9.063h1.979v10.737h-1.979v-.905c-.582.75-1.411 1.12-2.485 1.12-1.029 0-1.917-.384-2.653-1.166-.722-.782-1.091-1.75-1.091-2.885 0-1.133.369-2.087 1.091-2.868.736-.782 1.624-1.181 2.653-1.181 1.074 0 1.903.368 2.485 1.12v-3.972zm5.768 4.387c.368-.983 1.29-1.472 2.332-1.472v2.208c-.6-.077-1.15.047-1.625.368-.477.322-.707.844-.707 1.58v3.666h-1.977v-7.67h1.977v1.32zm8.745 1.796c-.231-1.045-.998-1.55-1.904-1.55-1.058 0-1.778.567-2.01 1.55h3.914zm-3.883 1.532c.262.966.982 1.442 2.165 1.442.75 0 1.335-.26 1.718-.767l1.596.921c-.755 1.088-1.872 1.641-3.345 1.641-1.274 0-2.287-.384-3.053-1.15-.767-.767-1.151-1.735-1.151-2.9 0-1.15.384-2.116 1.135-2.885.752-.78 1.733-1.165 2.914-1.165 1.12 0 2.057.384 2.775 1.165.738.783 1.108 1.734 1.108 2.884 0 .261-.031.522-.078.814h-5.784zm10.892 1.348c.614 0 1.119-.198 1.519-.597.415-.414.614-.935.614-1.565 0-.63-.2-1.15-.614-1.548-.4-.414-.905-.614-1.52-.614-.613 0-1.118.2-1.52.614-.396.398-.596.919-.596 1.548 0 .63.2 1.15.597 1.565.4.399.906.598 1.52.598zm2.133-5.996h1.978v7.67h-1.978v-.905c-.6.75-1.427 1.12-2.502 1.12-1.026 0-1.902-.384-2.638-1.166-.72-.782-1.09-1.75-1.09-2.885 0-1.133.37-2.087 1.09-2.868.736-.782 1.612-1.181 2.638-1.181 1.075 0 1.903.368 2.502 1.12v-.905zm15.155 2.945v4.725h-1.98v-4.587c0-.921-.476-1.457-1.287-1.457-.905 0-1.427.613-1.427 1.735v4.309h-1.977v-4.587c0-.921-.477-1.457-1.289-1.457-.875 0-1.442.613-1.442 1.735v4.309h-1.98v-7.67h1.98v.814c.458-.691 1.164-1.03 2.131-1.03.934 0 1.64.369 2.088 1.105.503-.736 1.271-1.104 2.282-1.104 1.765 0 2.901 1.243 2.901 3.16m2.575 2.735v.445h.208c.173 0 .275-.087.275-.221 0-.151-.09-.224-.275-.224h-.208zm.542.677l.333.609h-.362l-.279-.54h-.234v.54h-.333v-1.596h.541c.374 0 .606.225.606.517 0 .225-.09.379-.272.47zm.641.824c.28-.28.417-.616.417-1.013a1.38 1.38 0 0 0-.417-1.014 1.353 1.353 0 0 0-1-.42c-.394 0-.73.139-1.01.42-.277.28-.414.616-.414 1.014 0 .397.137.733.413 1.013.28.28.617.419 1.01.419a1.35 1.35 0 0 0 1.001-.42zm-1-2.574c.43 0 .797.15 1.103.456.305.307.457.673.457 1.105 0 .43-.152.798-.457 1.104a1.499 1.499 0 0 1-1.104.456c-.43 0-.798-.15-1.104-.456a1.504 1.504 0 0 1-.459-1.104c0-.432.153-.798.46-1.105a1.505 1.505 0 0 1 1.103-.456zm-46.33-46.773c8.597.01 15.519.49 15.519 10.145 0 9.764-7.082 17.68-15.816 17.68-8.735 0-15.817-7.916-15.817-17.68 0-9.766 7.082-10.145 15.817-10.145zm12.355 7.649l.053.19.03.105c.01.038.022.079.03.125.025.089.05.19.073.307.099.459.186 1.117.16 1.893a4.07 4.07 0 0 1-.074.046c-.06.035-.143.092-.211.12l-.252.126c-.106.04-.221.086-.343.134l-.402.124c-.144.034-.292.074-.445.107-.154.027-.311.064-.47.086-.16.024-.318.05-.478.066l-.236.028-.231.02c-.153.014-.301.02-.441.029-.141.008-.274.01-.397.016-.492.01-.822-.005-.822-.005s.319.083.809.172c.122.02.256.045.397.067.14.02.29.044.446.06l.237.029.245.022c.164.017.33.024.5.034.169.01.339.006.507.01.168-.001.334-.01.497-.015l.469-.045.424-.072c.057-.013.112-.026.165-.041l-.022.155c-.071.44-.178.903-.312 1.374-.052.185-.111.374-.171.563l-.11.067c-.06.035-.142.09-.21.12l-.12.059-.132.066c-.106.04-.221.086-.343.134l-.402.124c-.143.034-.292.074-.445.107-.154.028-.311.065-.47.086-.16.025-.32.05-.478.067l-.236.027-.231.02c-.153.015-.301.02-.441.03-.141.007-.274.01-.397.015-.492.01-.822-.005-.822-.005a12.568 12.568 0 0 0 1.206.238c.14.02.29.046.446.063l.238.028.242.022c.166.017.333.024.502.033.169.01.339.007.507.01.168-.001.334-.01.496-.015.162-.016.32-.031.47-.044a17.8 17.8 0 0 1 .29-.05 24.573 24.573 0 0 1-.813 1.787c-.033.02-.082.053-.148.093-.06.034-.142.092-.211.12l-.252.125c-.106.04-.221.086-.343.134l-.403.124c-.142.034-.291.074-.444.107-.154.027-.311.065-.471.087-.16.024-.32.05-.477.066l-.236.027-.233.02c-.151.014-.3.02-.44.029-.14.009-.274.012-.396.016-.493.01-.822-.004-.822-.004s.319.08.809.17c.122.022.255.047.396.068.142.019.29.044.446.06l.237.029.244.022c.165.018.334.024.502.033.169.012.34.007.507.012.169-.002.335-.01.496-.016l.47-.045.097-.016c-.03.054-.058.108-.09.16-.125.225-.254.443-.381.658a40.95 40.95 0 0 1-1.481 2.315 30.2 30.2 0 0 1-.641.899c-.197.266-.375.492-.524.676a8.493 8.493 0 0 1-.363.416 2.35 2.35 0 0 1-.14.14l.046-.021c.03-.012.077-.033.134-.065.115-.061.284-.156.484-.295.403-.277.942-.72 1.53-1.311.294-.295.602-.627.91-.992a18.103 18.103 0 0 0 1.373-1.843l.22-.341c.07-.117.142-.233.21-.352.283-.472.543-.97.784-1.476.117-.255.228-.514.334-.773.106-.26.202-.523.29-.787.09-.263.168-.528.24-.792.068-.265.134-.527.18-.79.103-.523.16-1.04.176-1.53a7.726 7.726 0 0 0-.074-1.38 6.26 6.26 0 0 0-.27-1.132 5.234 5.234 0 0 0-.35-.818c-.03-.054-.055-.105-.082-.152a5.573 5.573 0 0 0-.081-.132 2.314 2.314 0 0 0-.13-.201 18.507 18.507 0 0 1-.114-.161zm-12.652-6.64c-6.482 0-11.736.844-11.736 2.906 0 2.062 5.254 3.733 11.736 3.733 6.482 0 11.735-1.671 11.735-3.733 0-2.062-5.253-2.906-11.735-2.906zM47.35 8.31a21.32 21.32 0 0 1 5.218 4.268c1.49.86 3.483 2.324 5.21 4.182a23.6 23.6 0 0 0-4.475-6.381 23.171 23.171 0 0 0-6.695-4.757c.287.862.544 1.786.742 2.688"/><path d="M59.78 30.887c-.723.827-1.66 1.73-2.816 2.963a21.401 21.401 0 0 1-.914 2.326l-.197.428.2.429a8.614 8.614 0 0 1 .806 3.675c0 4.617-3.576 8.373-7.97 8.373-1.607 0-3.156-.5-4.48-1.447l-.422-.303-.494.164a20.76 20.76 0 0 1-6.59 1.068c-5.646 0-10.953-2.237-14.945-6.3-3.998-4.066-6.2-9.473-6.2-15.227 0-5.753 2.202-11.161 6.2-15.228 3.368-3.427 7.673-5.554 12.325-6.136-.738-.461-1.385-1.131-1.894-1.758-4.475.892-8.589 3.112-11.886 6.465-4.376 4.45-6.785 10.366-6.785 16.657 0 6.292 2.41 12.206 6.785 16.658 4.38 4.455 10.204 6.909 16.4 6.909 2.3 0 4.57-.343 6.753-1.018a9.674 9.674 0 0 0 5.233 1.536c5.52 0 10.01-4.671 10.01-10.413 0-1.427-.27-2.805-.806-4.101a23.632 23.632 0 0 0 1.686-5.72M37.19 0c2.945.487 5.424 1.934 7.208 4.383 1.556 2.137 2.851 6.723.528 8.941-.518-1.732-2.537-4.502-1.436-6.218-1.855.777-1.48-.747-1.144-2.102-.882.878-2.886 1.46-3.815-.032-.664-1.068.42-.815.504-1.98-1.717 1.277-5.032 1.814-6.42-.596-.794-1.38-1.126-.57.621-1.726C34.291-.027 35.981 0 37.19 0c.553.092-.444 0 0 0"/><path d="M57.36 31.062c.06-1.558-.348-3.126-1.341-4.391 1.036-.146 1.45-.15 1.868-.922.054-.1-2.281-.317-2.475-.435-2.16-1.306.37-2.374.172-3.637-.15-.964-1.571-.362-2.513-.916-2.382-1.405.235-1.742-.235-3.187-1.091-.31-1.077.393-1.99-.112-1.405-.778-1.65-2.582-5.36-3.586 5.325-2.044 10.414 1.957 13.223 6.126 1.434 2.128 2.293 5.086 1.428 7.609-.388 1.134-2.624 3.56-2.777 3.45-.132-.095.018.003 0 0M38.252 9.383c-.574 1.62.16 1.226-.818 1.548-1.64.54-2.553-1.482-2.51-2.605-.319.71-1.803 2.828-2.057.65-.958 1.805-3.116 2.06-4.982 2.867 1.97-5.08 8.071-6.863 12.686-3.653 2.71 1.884 3.247 4.929 3.247 4.929s-4.736-.677-5.566-3.736c.114.425.008.08 0 0m22.952 39.289a2.68 2.68 0 0 0-2.678 2.677 2.681 2.681 0 0 0 2.678 2.678 2.68 2.68 0 0 0 2.677-2.678c0-1.477-1.2-2.677-2.677-2.677m0 6.646a3.974 3.974 0 0 1-3.97-3.969 3.974 3.974 0 0 1 3.97-3.969 3.973 3.973 0 0 1 3.968 3.97 3.973 3.973 0 0 1-3.968 3.968M44.672 14.017l-.3-.225s-.35.096-.865.339a10.896 10.896 0 0 0-1.917 1.164c-.359.27-.726.578-1.09.923a8.18 8.18 0 0 0-1.037 1.163c-.318.436-.584.933-.842 1.446a45.022 45.022 0 0 1-.55 1.047 15.897 15.897 0 0 1-.274.48c-.08.133-.16.264-.238.396v.002a51.47 51.47 0 0 0-.352.586c-.099.167-.198.333-.294.499-.289.49-.565.98-.832 1.453-.085.153-.169.303-.25.452-.177.316-.347.624-.51.92-.005.015-.014.027-.02.04a29.326 29.326 0 0 0 2.495-.024c.02-.018.036-.036.057-.056.206-.213.422-.432.634-.653.178-.181.352-.363.53-.55.392-.411.782-.838 1.178-1.26.091-.1.186-.198.282-.295.09-.094.185-.187.28-.28.222-.217.45-.43.676-.64l.246-.232.034-.033a7.24 7.24 0 0 0 .233-.23l.035-.035c.08-.08.154-.158.227-.238.007-.007.013-.014.021-.02.125-.14.245-.28.358-.424.333-.423.6-.874.83-1.32.23-.445.423-.884.584-1.303a11.275 11.275 0 0 0 .586-2.167c.09-.561.085-.925.085-.925"/></g></svg>