<svg width="85" height="71" viewBox="0 0 85 71" xmlns="http://www.w3.org/2000/svg"><title>logo</title><g fill="none" fill-rule="evenodd"><path d="M4.036 67.005c.844 0 1.565-.29 2.147-.875a2.983 2.983 0 0 0 .876-2.163c0-.842-.293-1.564-.876-2.147-.582-.598-1.303-.889-2.147-.889-.844 0-1.565.291-2.147.89-.584.582-.876 1.304-.876 2.146 0 .846.292 1.566.876 2.163.582.584 1.303.875 2.147.875m2.869-5.889c.782.781 1.165 1.733 1.165 2.851 0 1.122-.383 2.072-1.165 2.854-.768.783-1.702 1.166-2.792 1.166-1.366 0-2.393-.567-3.1-1.688v4.573H0V60.134h1.013v1.503c.707-1.12 1.734-1.688 3.1-1.688 1.09 0 2.024.384 2.792 1.167m6.425 5.889c.845 0 1.565-.29 2.15-.875.582-.597.871-1.317.871-2.163 0-.842-.289-1.564-.87-2.147-.586-.598-1.306-.889-2.15-.889-.843 0-1.565.291-2.147.89-.582.582-.874 1.304-.874 2.146 0 .846.292 1.566.874 2.163.582.584 1.304.875 2.146.875zm3.021-6.87h1.013v7.668h-1.013V66.3c-.704 1.121-1.73 1.688-3.098 1.688-1.089 0-2.024-.383-2.805-1.166-.768-.782-1.152-1.732-1.152-2.854 0-1.118.384-2.07 1.152-2.85.781-.784 1.716-1.168 2.805-1.168 1.367 0 2.394.568 3.098 1.688v-1.503zm3.163 7.669h1.011V56.605h-1.011zm14.205-4.786v4.786h-1.013v-4.786c0-1.335-.752-2.086-1.873-2.086-1.272 0-2.13.828-2.13 2.623v4.249H27.69v-4.786c0-1.35-.691-2.086-1.795-2.086-1.228 0-2.208.844-2.208 2.623v4.249h-1.014v-7.67h1.014v1.12c.553-.875 1.332-1.304 2.345-1.304 1.105 0 1.888.46 2.332 1.395.55-.935 1.382-1.395 2.484-1.395 1.72 0 2.87 1.18 2.87 3.068m5.491 3.112c.615 0 1.122-.198 1.521-.597.396-.414.597-.935.597-1.565 0-.63-.201-1.15-.597-1.548-.399-.414-.906-.614-1.521-.614-.611 0-1.119.2-1.533.614-.399.398-.597.919-.597 1.548 0 .63.198 1.15.597 1.565.414.399.922.598 1.533.598zm2.118-9.063h1.979v10.737h-1.979v-.905c-.582.75-1.411 1.12-2.485 1.12-1.029 0-1.917-.384-2.653-1.166-.722-.782-1.091-1.75-1.091-2.885 0-1.133.369-2.087 1.091-2.868.736-.782 1.624-1.181 2.653-1.181 1.074 0 1.903.368 2.485 1.12v-3.972zm5.768 4.387c.368-.983 1.29-1.472 2.332-1.472v2.208c-.6-.077-1.15.047-1.625.368-.477.322-.707.844-.707 1.58v3.666h-1.977v-7.67h1.977v1.32zm8.745 1.796c-.231-1.045-.998-1.55-1.904-1.55-1.058 0-1.778.567-2.01 1.55h3.914zm-3.883 1.532c.262.966.982 1.442 2.165 1.442.75 0 1.335-.26 1.718-.767l1.596.921c-.755 1.088-1.872 1.641-3.345 1.641-1.274 0-2.287-.384-3.053-1.15-.767-.767-1.151-1.735-1.151-2.9 0-1.15.384-2.116 1.135-2.885.752-.78 1.733-1.165 2.914-1.165 1.12 0 2.057.384 2.775 1.165.738.783 1.108 1.734 1.108 2.884 0 .261-.031.522-.078.814h-5.784zm10.892 1.348c.614 0 1.119-.198 1.519-.597.415-.414.614-.935.614-1.565 0-.63-.2-1.15-.614-1.548-.4-.414-.905-.614-1.52-.614-.613 0-1.118.2-1.52.614-.396.398-.596.919-.596 1.548 0 .63.2 1.15.597 1.565.4.399.906.598 1.52.598zm2.133-5.996h1.978v7.67h-1.978v-.905c-.6.75-1.427 1.12-2.502 1.12-1.026 0-1.902-.384-2.638-1.166-.72-.782-1.09-1.75-1.09-2.885 0-1.133.37-2.087 1.09-2.868.736-.782 1.612-1.181 2.638-1.181 1.075 0 1.903.368 2.502 1.12v-.905zm15.155 2.945v4.725h-1.98v-4.587c0-.921-.476-1.457-1.287-1.457-.905 0-1.427.613-1.427 1.735v4.309h-1.977v-4.587c0-.921-.477-1.457-1.289-1.457-.875 0-1.442.613-1.442 1.735v4.309h-1.98v-7.67h1.98v.814c.458-.691 1.164-1.03 2.131-1.03.934 0 1.64.369 2.088 1.105.503-.736 1.271-1.104 2.282-1.104 1.765 0 2.901 1.243 2.901 3.16m2.575 2.735v.445h.208c.173 0 .275-.087.275-.221 0-.151-.09-.224-.275-.224h-.208zm.542.677l.333.609h-.362l-.279-.54h-.234v.54h-.333v-1.596h.541c.374 0 .606.225.606.517 0 .225-.09.379-.272.47zm.641.824c.28-.28.417-.616.417-1.013a1.38 1.38 0 0 0-.417-1.014 1.353 1.353 0 0 0-1-.42c-.394 0-.73.139-1.01.42-.277.28-.414.616-.414 1.014 0 .397.137.733.413 1.013.28.28.617.419 1.01.419a1.35 1.35 0 0 0 1.001-.42zm-1-2.574c.43 0 .797.15 1.103.456.305.307.457.673.457 1.105 0 .43-.152.798-.457 1.104a1.499 1.499 0 0 1-1.104.456c-.43 0-.798-.15-1.104-.456a1.504 1.504 0 0 1-.459-1.104c0-.432.153-.798.46-1.105a1.505 1.505 0 0 1 1.103-.456z" fill="#221E1F"/><path d="M49.845 31.123c-.046.263-.112.525-.18.79a12.36 12.36 0 0 1-.24.792c-.088.264-.184.527-.29.787-.106.259-.217.518-.334.773a17.693 17.693 0 0 1-.783 1.476c-.07.119-.141.235-.211.352l-.22.34a18.103 18.103 0 0 1-1.373 1.843 16.05 16.05 0 0 1-.91.993 11.296 11.296 0 0 1-1.53 1.31c-.2.14-.37.235-.484.296a1.159 1.159 0 0 1-.134.065l-.046.02s.052-.045.14-.14c.089-.091.21-.233.363-.415.149-.184.327-.41.524-.676a30.2 30.2 0 0 0 .64-.9 40.95 40.95 0 0 0 1.482-2.314c.127-.215.256-.433.382-.657l.089-.161-.097.016-.47.045c-.161.006-.327.014-.496.016-.167-.005-.338 0-.507-.012-.168-.01-.337-.015-.502-.033l-.244-.022c-.08-.01-.158-.02-.237-.028-.155-.017-.304-.042-.446-.061-.141-.021-.274-.046-.396-.067-.49-.09-.81-.171-.81-.171s.33.015.823.004c.122-.004.256-.007.397-.016.14-.01.288-.015.439-.03a6.1 6.1 0 0 0 .233-.02l.236-.026c.158-.016.318-.042.477-.066.16-.022.317-.06.47-.087.154-.033.303-.073.445-.107l.403-.124.343-.134.252-.125c.069-.028.152-.086.21-.12l.15-.092a27.886 27.886 0 0 0 .813-1.787 17.8 17.8 0 0 0-.291.049c-.15.013-.308.028-.47.044-.162.005-.328.014-.496.016-.168-.004-.338 0-.507-.011-.17-.01-.336-.016-.502-.033l-.242-.022c-.082-.01-.16-.02-.238-.028-.155-.017-.305-.042-.446-.063a17.55 17.55 0 0 1-.397-.065c-.49-.09-.81-.173-.81-.173s.33.016.823.005c.123-.004.256-.008.397-.015.14-.01.288-.015.44-.03l.232-.02c.077-.01.157-.018.236-.027.158-.016.318-.042.479-.067.158-.021.315-.058.469-.086.153-.033.302-.073.445-.107l.402-.124.343-.134.252-.125c.068-.03.15-.085.21-.12.045-.026.079-.05.11-.067.06-.19.119-.378.17-.563.135-.471.242-.933.313-1.374l.022-.155a3.316 3.316 0 0 1-.165.04c-.13.024-.273.048-.424.073l-.47.045c-.162.005-.328.014-.496.016-.168-.005-.338 0-.507-.011-.17-.01-.336-.017-.5-.034a15.952 15.952 0 0 1-.245-.022c-.08-.01-.16-.02-.237-.028-.155-.017-.305-.041-.446-.061-.141-.022-.275-.046-.397-.067-.49-.09-.81-.172-.81-.172s.33.016.823.005c.123-.005.256-.008.397-.016.14-.01.288-.015.44-.03.076-.006.153-.012.232-.02.077-.01.157-.017.236-.027.16-.015.318-.042.478-.066.159-.022.316-.06.47-.086.153-.033.3-.073.445-.107l.402-.124.343-.134.252-.125c.068-.03.15-.086.21-.121a4.07 4.07 0 0 0 .075-.046 7.867 7.867 0 0 0-.232-2.2 2.945 2.945 0 0 0-.03-.125 6.634 6.634 0 0 1-.031-.104l-.053-.191.114.16c.039.054.082.12.13.202.026.04.053.085.08.132.028.047.054.098.083.152.118.216.24.49.35.818.113.327.209.708.27 1.132.063.424.09.889.074 1.38a9.563 9.563 0 0 1-.176 1.53M36.268 17.968c-8.735 0-15.817.379-15.817 10.145 0 9.764 7.082 17.68 15.817 17.68 8.734 0 15.816-7.916 15.816-17.68 0-9.766-7.082-10.145-15.816-10.145" fill="#693E17"/><path d="M26.099 28.648c0-3.747.998-7.264 2.747-10.312-4.993.751-8.394 3.011-8.394 9.777 0 9.297 6.42 16.918 14.573 17.626-5.405-3.818-8.926-10.05-8.926-17.091" fill="#472917"/><path d="M40.178 18.028a7.87 7.87 0 0 0-.845 1.116c-.287.457-.517.971-.74 1.501a49.064 49.064 0 0 1-.472 1.083l-.027.06c-.07.148-.141.294-.214.438-.07.138-.14.275-.208.412l-.002.002c-.077.153-.154.306-.233.458l-.075.151c-.088.173-.173.346-.258.52-.092.184-.183.37-.272.554a23.45 23.45 0 0 0 1.634-.058c.56-.044 1.104-.089 1.657-.064a29.568 29.568 0 0 1 .536-.657l.26-.298c.208-.233.419-.463.63-.688l.229-.248.032-.036c.073-.08.146-.163.216-.246.01-.012.023-.024.033-.037l.21-.254c.007-.006.01-.014.017-.02.117-.148.228-.296.329-.449a8.07 8.07 0 0 0 .733-1.376c.199-.459.362-.91.492-1.34.019-.062.034-.123.052-.185-1.156-.184-2.402-.284-3.714-.339" fill="#161411"/><path d="M42.884 50.725c0 .345-4.637.625-10.355.625-5.717 0-10.354-.28-10.354-.625s4.637-.624 10.354-.624c5.718 0 10.355.279 10.355.624m12.536.348c0 .27-2.717.489-6.068.489-3.352 0-6.068-.218-6.068-.49 0-.27 2.716-.49 6.068-.49 3.35 0 6.069.22 6.069.49" fill-opacity=".15" fill="#161411"/><path d="M47.35 8.31a21.32 21.32 0 0 1 5.218 4.268c1.49.86 3.483 2.324 5.21 4.182a23.6 23.6 0 0 0-4.475-6.381 23.171 23.171 0 0 0-6.695-4.757c.287.862.544 1.786.742 2.688" fill="#156DB2"/><path d="M56.964 33.85a21.401 21.401 0 0 1-.914 2.326l-.197.428.2.429a8.614 8.614 0 0 1 .806 3.675c0 4.617-3.576 8.373-7.97 8.373-1.607 0-3.156-.5-4.48-1.447l-.422-.303-.494.164a20.76 20.76 0 0 1-6.59 1.068c-5.646 0-10.953-2.237-14.945-6.3-3.998-4.066-6.2-9.473-6.2-15.227 0-5.753 2.202-11.161 6.2-15.228 3.368-3.427 7.673-5.554 12.325-6.136-.738-.461-1.385-1.131-1.894-1.758-4.475.892-8.589 3.112-11.886 6.465-4.376 4.45-6.785 10.366-6.785 16.657 0 6.292 2.41 12.206 6.785 16.658 4.38 4.455 10.204 6.909 16.4 6.909 2.3 0 4.57-.343 6.753-1.018a9.674 9.674 0 0 0 5.233 1.536c5.52 0 10.01-4.671 10.01-10.413 0-1.427-.27-2.805-.806-4.101a23.632 23.632 0 0 0 1.686-5.72c-.722.827-1.659 1.73-2.815 2.963z" fill="#136DB3"/><path d="M37.19 0c2.945.487 5.424 1.934 7.208 4.383 1.556 2.137 2.851 6.723.528 8.941-.518-1.732-2.537-4.502-1.436-6.218-1.855.777-1.48-.747-1.144-2.102-.882.878-2.886 1.46-3.815-.032-.664-1.068.42-.815.504-1.98-1.717 1.277-5.032 1.814-6.42-.596-.794-1.38-1.126-.57.621-1.726C34.291-.027 35.981 0 37.19 0c.553.092-.444 0 0 0m20.17 31.062c.06-1.558-.348-3.126-1.341-4.391 1.036-.146 1.45-.15 1.868-.922.054-.1-2.281-.317-2.475-.435-2.16-1.306.37-2.374.172-3.637-.15-.964-1.571-.362-2.513-.916-2.382-1.405.235-1.742-.235-3.187-1.091-.31-1.077.393-1.99-.112-1.405-.778-1.65-2.582-5.36-3.586 5.325-2.044 10.414 1.957 13.223 6.126 1.434 2.128 2.293 5.086 1.428 7.609-.388 1.134-2.624 3.56-2.777 3.45-.132-.095.018.003 0 0" fill="#91BF3E"/><path d="M38.252 9.383c-.574 1.62.16 1.226-.818 1.548-1.64.54-2.553-1.482-2.51-2.605-.319.71-1.803 2.828-2.057.65-.958 1.805-3.116 2.06-4.982 2.867 1.97-5.08 8.071-6.863 12.686-3.653 2.71 1.884 3.247 4.929 3.247 4.929s-4.736-.677-5.566-3.736c.114.425.008.08 0 0" fill="#91BF3E"/><path d="M64.717 55.379c0 .271-1.664.49-3.717.49-2.054 0-3.72-.219-3.72-.49s1.666-.49 3.72-.49c2.053 0 3.717.219 3.717.49" fill-opacity=".15" fill="#161411"/><path d="M61.204 48.672a2.68 2.68 0 0 0-2.678 2.677 2.681 2.681 0 0 0 2.678 2.678 2.68 2.68 0 0 0 2.677-2.678c0-1.477-1.2-2.677-2.677-2.677m0 6.646a3.974 3.974 0 0 1-3.97-3.969 3.974 3.974 0 0 1 3.97-3.969 3.973 3.973 0 0 1 3.968 3.97 3.973 3.973 0 0 1-3.968 3.968" fill="#136DB3"/><path d="M48.003 21.883c0 2.062-5.253 3.733-11.735 3.733-6.482 0-11.736-1.671-11.736-3.733 0-2.062 5.254-2.906 11.736-2.906 6.482 0 11.735.844 11.735 2.906" fill="#FEFEFE"/><path d="M45.59 21.753c0 1.638-4.173 2.966-9.322 2.966-5.15 0-9.324-1.328-9.324-2.966 0-1.638 4.174-2.31 9.324-2.31 5.149 0 9.323.672 9.323 2.31" fill="#D5D3D3"/><path d="M39.392 19.049l-.06.095c-.286.457-.516.97-.739 1.502a42.76 42.76 0 0 1-.472 1.083l-.028.06c-.068.147-.14.293-.214.438l-.208.41v.004c-.078.153-.155.305-.234.457l-.076.152c-.087.173-.173.346-.257.518-.073.145-.144.29-.214.434 1.111-.125 2.23-.128 3.346-.143l.163-.2c.084-.107.172-.211.26-.315a34.626 34.626 0 0 1 .889-.985c.08-.083.154-.166.23-.25a12.107 12.107 0 0 0 .247-.28c.012-.012.024-.024.034-.037l.21-.254.017-.022c.116-.146.227-.295.328-.447.303-.446.537-.915.734-1.376.064-.147.122-.291.177-.435-1.209-.201-2.608-.334-4.133-.41" fill="#EAE8EB"/><path d="M39.116 19.52c-.192.356-.36.736-.522 1.125a29.589 29.589 0 0 1-.473 1.083l-.027.061a16.13 16.13 0 0 1-.214.438c-.07.137-.14.274-.208.411-.002.001-.002.002-.002.003-.077.152-.154.305-.233.457l-.075.151c-.088.173-.173.347-.258.52-.158.317-.311.634-.461.947a27.26 27.26 0 0 0 3.25-.23l.506-.628c.085-.106.172-.21.26-.314l.26-.298c.208-.233.419-.462.63-.687l.229-.248a15.758 15.758 0 0 0 .248-.281l.033-.038.21-.254c.007-.007.01-.014.017-.022.117-.147.227-.295.329-.447a7.84 7.84 0 0 0 .65-1.188c-1.1-.284-2.528-.466-4.15-.56" fill="#B1AEAC"/><path d="M44.671 14.017l-.3-.225s-.349.096-.864.339a10.896 10.896 0 0 0-1.917 1.164c-.359.27-.726.578-1.09.923a8.18 8.18 0 0 0-1.037 1.163c-.318.436-.584.933-.842 1.446a45.022 45.022 0 0 1-.55 1.047 15.897 15.897 0 0 1-.274.48c-.08.133-.16.264-.238.396v.002a51.47 51.47 0 0 0-.352.586c-.099.167-.198.333-.294.499-.289.49-.565.98-.832 1.453-.085.153-.169.303-.25.452-.177.316-.347.624-.51.92-.005.015-.014.027-.02.04a29.326 29.326 0 0 0 2.495-.024c.02-.018.036-.036.057-.056.206-.213.422-.432.634-.653.178-.181.352-.363.53-.55.392-.411.782-.838 1.178-1.26.091-.1.186-.198.282-.295.09-.094.185-.187.28-.28.222-.217.45-.43.676-.64l.246-.232.034-.033a7.24 7.24 0 0 0 .233-.23l.035-.035c.08-.08.154-.158.227-.238.007-.007.013-.014.021-.02.125-.14.245-.28.358-.424.333-.423.6-.874.83-1.32.23-.445.423-.884.584-1.303a11.275 11.275 0 0 0 .586-2.167c.09-.561.084-.925.084-.925" fill="#693E17"/><path d="M44.651 14.002l-7.949 10.714c.371-.006.735-.02 1.094-.037.02-.02.036-.037.057-.056.206-.214.422-.433.634-.654.178-.18.352-.363.53-.55.392-.411.782-.837 1.178-1.26a14.784 14.784 0 0 1 .561-.574c.223-.218.45-.431.677-.641l.246-.232.034-.033a7.24 7.24 0 0 0 .233-.23l.035-.035c.08-.08.154-.158.227-.238.007-.007.013-.014.021-.02a6.75 6.75 0 0 0 .358-.424c.333-.423.6-.874.83-1.32.23-.445.423-.884.584-1.303a11.129 11.129 0 0 0 .586-2.167c.09-.561.084-.925.084-.925l-.02-.015z" fill="#472917"/><path d="M38.252 9.383c.008.08.114.425 0 0m5.344 3.697c-1.529-2.517-3.63-5.37-7.745-5.395-3.896-.026-5.66 2.075-6.669 3.67 1.486-.514 2.945-.982 3.684-2.378.254 2.177 1.74.06 2.057-.65-.042 1.122.87 3.145 2.511 2.605.977-.323.245.072.817-1.55.722 2.663 4.403 3.522 5.345 3.699" fill="#7FA03D"/><path d="M44.787 12.918c.66-3.803 1.05-6.214-2.751-9.705C39 .423 34.254 1.077 32.035 1.59c.1.126.315.343.58.807 1.388 2.409 4.703 1.872 6.42.595-.083 1.166-1.168.912-.504 1.98.928 1.493 2.933.91 3.816.033-.336 1.354-.711 2.878 1.144 2.102-1.017 1.587.632 4.075 1.296 5.81m.783.927a1.639 1.639 0 0 1-.084.031c3.711 1.004 3.954 2.808 5.361 3.586.912.505.897-.198 1.99.112.468 1.445-2.149 1.783.234 3.187.941.554 2.363-.047 2.513.917.197 1.262-2.332 2.33-.172 3.636.193.118 2.528.337 2.474.435-.417.772-.83.777-1.868.922.994 1.264 1.403 2.832 1.342 4.388-.013-.014-.118-.082 0 .003.1.073 1.085-.936 1.866-1.96.684-1.97.9-4.775-1.152-7.925-3.823-5.869-6.36-6.81-12.504-7.332" fill="#7FA03D"/></g></svg>